/* XPM */
static char *result[] = {
/* columns rows colors chars-per-pixel */
"64 64 120 2 ",
"   c black",
".  c #010101",
"X  c #000500",
"o  c #060606",
"O  c #060706",
"+  c gray3",
"@  c gray4",
"#  c #001300",
"$  c #001400",
"%  c #001C00",
"&  c #1B1B1B",
"*  c #1B1C1B",
"=  c gray11",
"-  c #1D1F1D",
";  c #002200",
":  c #002400",
">  c #003400",
",  c #003A00",
"<  c #202020",
"1  c #222222",
"2  c #222322",
"3  c gray14",
"4  c #282828",
"5  c #292A29",
"6  c #333433",
"7  c #004000",
"8  c #004400",
"9  c #004500",
"0  c #004E00",
"q  c #005E00",
"w  c #006700",
"e  c #007100",
"r  c #007900",
"t  c #464646",
"y  c #474847",
"u  c #4D4F4D",
"i  c #505150",
"p  c #505250",
"a  c #565756",
"s  c gray34",
"d  c #595A59",
"f  c #5B5B5B",
"g  c #5B5D5B",
"h  c #606060",
"j  c #656565",
"k  c #666766",
"l  c #676767",
"z  c #6A6A6A",
"x  c #6F6F6F",
"c  c #747574",
"v  c gray50",
"b  c #008000",
"n  c green",
"m  c #808080",
"M  c #818181",
"N  c gray51",
"B  c #838383",
"V  c #838483",
"C  c #848484",
"Z  c #848584",
"A  c gray52",
"S  c #868686",
"D  c #888888",
"F  c #888988",
"G  c #898989",
"H  c gray55",
"J  c #8D8D8D",
"K  c gray56",
"L  c #909090",
"P  c #909190",
"I  c gray57",
"U  c #919291",
"Y  c #929292",
"T  c #939393",
"R  c #989898",
"E  c #9D9E9D",
"W  c gray64",
"Q  c #A4A4A4",
"!  c #A7A8A7",
"~  c #ADAEAD",
"^  c gray70",
"/  c gray71",
"(  c #B7B7B7",
")  c #B7B8B7",
"_  c #B9B9B9",
"`  c gray",
"'  c gray75",
"]  c #C0C0C0",
"[  c #C3C3C3",
"{  c #C5C5C5",
"}  c gray79",
"|  c #CBCBCB",
" . c gray80",
".. c #D2D2D2",
"X. c LightGray",
"o. c #D7D7D7",
"O. c #D8D8D8",
"+. c #DDDDDD",
"@. c gray88",
"#. c gray89",
"$. c #E4E4E4",
"%. c #E6E6E6",
"&. c #E7E7E7",
"*. c #E9E9E9",
"=. c gray93",
"-. c gray94",
";. c #F1F1F1",
":. c gray95",
">. c #F3F3F3",
",. c #F4F4F4",
"<. c gray96",
"1. c #F6F6F6",
"2. c gray97",
"3. c #F8F8F8",
"4. c #F9F9F9",
"5. c gray98",
"6. c #FBFBFB",
"7. c gray99",
"8. c #FEFEFE",
"9. c white",
/* pixels */
"9.%.9.%.9.%.9.%.9.;.%.9.%.9.%.9.%.9.%.9.%.9.%.9.%.9.%.9.=.%.9.    %.9.%.9.%.9.%.9.%.9.%.9.%.9.*.*.9.%.9.%.9.%.9.%.9.%.9.%.9.%.9.",
"%.9.%.9.%.9.%.9.%.,.9.%.9.%.9.%.9.%.9.%.9.%.9.%.9.%.9.%.3.9.  n 7   %.9.%.9.%.9.%.9.%.9.%.9.%.7.7.%.9.%.9.%.9.%.9.%.9.%.9.%.9.%.",
"9.%.9.%.9.%.9.%.9.;.%.9.%.9.%.9.%.9.%.9.%.9.%.9.%.9.%.9.=.  n n 7 7   %.9.%.9.%.9.%.9.%.9.%.9.*.*.9.%.9.%.9.%.9.%.9.%.9.%.9.%.9.",
"%.9.%.9.%.9.%.9.%.,.9.%.9.%.9.%.9.%.9.%.9.%.9.%.9.%.9.%.  n n n 7 7 7   %.9.%.9.%.9.%.9.%.9.%.7.7.%.9.%.9.%.9.%.9.%.9.%.9.%.9.%.",
"9.%.9.%.9.%.9.%.9.;.%.9.%.9.%.9.%.9.%.9.%.9.%.9.%.9.%.  n n n b b 7 7 7   %.9.%.9.%.9.%.9.%.9.*.*.9.%.9.%.9.%.9.%.9.%.9.%.9.%.9.",
"%.9.%.9.%.9.%.9.                                            b b b b 7 7 7   %.  H Z j                                 %.9.%.9.%.",
"9.%.9.%.9.%.9.  9.9.9.9.9.9.9.9.9.9.9.9.9.9.9.9.9.9.9.9.9.9.  b b b b 7 7 7   9.9.9.9.9.9.9.9.9.9.9.9.9.9.9.9.9.9.9.9.  %.9.%.9.",
"%.9.%.9.%.9.  9.9.9.9.9.9.9.9.9.9.9.9.9.9.9.9.9.9.9.9.9.9.9.W   b b b b 7   9.9.9.9.9.9.9.9.9.9.9.9.9.9.9.9.9.9.9.9.9.9.  %.9.%.",
"9.%.9.%.9.%.  9.9.9.9.9.9.9.9.9.9.9.9.9.9.9.9.9.9.9.9.9.V m m   b b b b b   9.9.9.| +.@.>.3.9.9.9.9.9.9.9.9.9.9.9.9.9.9.9.  %.9.",
"=.3.=.3.=.3.  9.9.;.] ] ] ] ] ] ] ] ] ] ] ] ] ] ] ] ] m m m m   b b b b b X 9.9.m m m ] ] ] ] ] ] ] ] ] ] ] ] ] ] ] 9.9.m   3.=.",
"%.9.%.9.%.9.  9.9.9.] ] ] ] ] ] ] ] ] ] ] ] ] ] ] m m m m m Y   b b b b b b   m m m m m ] ] ] ] ] ] ] ] ] ] ] ] ] ] m m m   9.%.",
"9.%.9.%.9.%.  9.9.9.9.] ] ] ] ] ] ] ] ] ] ] ] ] ] m m m m U   b b b b b b b b   N m m m m ] ] ] ] ] ] ] ] ] ] ] ] ] m m m   %.9.",
"%.9.%.9.%.9.%.  9.9.9.9.2.] ] ] ] ] ] ] ] ] ] ] m m m A     b b b b b b b b b b 0   m m m Q ] ] ] ] ] ] ] ] ] ] ] ] m m m   9.%.",
"9.%.9.%.9.%.9.%.  9.9.9.9.] ] ] ] ] ] ] ] ] ] ] m m m   b b b b b b b b b b b b   m m m m ] ] ] ] ] ] ] ] ] ] ] ] m m m m   %.9.",
"%.9.%.9.%.9.%.9.%.  9.9.9.] ] ] ] ] ] ] ] ] ] ] m m m   b b b b b b b b b b b   m m m m ] ] ] ] ] ] ] ] ] ] ] ] m m m m   %.9.%.",
"9.%.9.%.9.%.9.%.9.  9.9.9.] ] ] ] ] ] ] ] ] ] ] m m m   b b b b b b b b b b   m m m m ] ] ] ] ] ] ] ] ] ] ] ] m m m m   %.9.%.9.",
"%.9.%.9.%.9.%.9.%.  9.9.9.] ] ] ] ] ] ] ] ] ] ] m m m   b b b b b b b b b   m m m m ] ] ] ] ] ] ] ] ] ] ] ] m m m m   %.9.%.9.%.",
"9.%.9.%.9.%.9.%.9.  9.9.9.] ] ] ] ] ] ] ] ] ] ] m m m   b b b b b b b b   m m m m ] ] ] ] ] ] ] ] ] ] ] ] m m m m   %.9.%.9.%.9.",
"%.9.%.9.%.9.%.9.%.  9.9.9.] ] ] ] ] ] ] ] ] ] ] m m m   b b b b b b b   m m m m ] ] ] ] ] ] ] ] ] ] ] ] m m m m   %.9.%.9.%.9.%.",
"9.%.9.%.9.%.9.%.9.  9.9.9.] ] ] ] ] ] ] ] ] ] ] m m m   b b b b b b   m m m m ] ] ] ] ] ] ] ] ] ] ] ] m m m m   %.9.%.9.%.9.%.9.",
"%.9.%.9.%.9.%.9.%.  9.9.9.] ] ] ] ] ] ] ] ] ] ] m m m   b b b b b   m m m m ] ] ] ] ] ] ] ] ] ] ] ] m m m m   %.9.%.9.%.9.%.9.%.",
"9.%.9.%.9.%.9.%.9.  9.9.9.] ] ] ] ] ] ] ] ] ] ] m m m   b b b b   m m m m ] ] ] ] ] ] ] ] ] ] ] ] m m m m   %.9.%.9.%.9.%.9.%.9.",
"%.9.%.9.%.9.%.9.%.  9.9.9.] ] ] ] ] ] ] ] ] ] ] m m m   b b b   m m m m ] ] ] ] ] ] ] ] ] ] ] ] m m m m   7   %.9.%.9.%.9.%.9.%.",
"9.%.9.%.9.%.9.%.    9.9.9.] ] ] ] ] ] ] ] ] ] ] m m m   b b   m m m m ] ] ] ] ] ] ] ] ] ] ] ] N m m m   7 7 7   %.9.%.9.%.9.%.9.",
"%.9.%.9.%.9.%.  n   9.9.9.] ] ] ] ] ] ] ] ] ] ] m m m   b   m m m m ] ] ] ] ] ] ] ] ] ] ] ] L m m m   b b 7 7 7   %.9.%.9.%.9.%.",
"9.%.9.%.9.%.  n n   9.9.9.] ] ] ] ] ] ] ] ] ] ] m m m     m m m m ] ] ] ] ] ] ] ] ] ] ] ] E m m m   e b b b 7 7 7   %.9.%.9.%.9.",
"%.9.%.9.%.  n n n   9.9.6.] ] ] ] ] ] ] ] ] ] ] m m m   m m m m ] ] ] ] ] ] ] ] ] ] ] ] / m m m   w b b b b b 7 7 7   %.9.%.9.%.",
"9.%.9.%.  n n n b   9.9.4.] ] ] ] ] ] ] ] ] ] ] m m m m m m m ] ] ] ] ] ] ] ] ] ] ] ] ' m m m + r b b b b b b b 7 7 7   %.9.%.9.",
"%.9.%.  n n n b b   9.9.:.] ] ] ] ] ] ] ] ] ] ] m m m m m m ] ] ] ] ] ] ] ] ] ] ] ] ] m m m 1 8 b b b b b b b b b 7 7 7   %.9.%.",
"-.<.  n n n b b b   9.9.-.] ] ] ] ] ] ] ] ] ] ] m m m m m ] ] ] ] ] ] ] ] ] ] ] ] ] m m m y : b b b b b b b b b b b 7 7 7   <.-.",
"9.  n n n b b b b * 9.9.-.] ] ] ] ] ] ] ] ] ] ] m m m m ] ] ] ] ] ] ] ] ] ] ] ] ] m m m g # b b b b b b b b b b b b b 7 7 7   9.",
"  n n n b b b b b 6 9.9.-.] ] ] ] ] ] ] ] ] ] ] m m m ] ] ] ] ] ] ] ] ] ] ] ] ] m m m v   b b b b b b b b b b b b b b b 7 7 7   ",
"  n n n b b b b b s 9.9.+.] ] ] ] ] ] ] ] ] ] ] m m ] ] ] ] ] ] ] ] ] ] ] ] ] m m m F   b b b b b b b b b b b b b b b b 7 7 7   ",
"%.  n n n b b b b x 9.9.+.] ] ] ] ] ] ] ] ] ] ] m ] ] ] ] ] ] ] ] ] ] ] ] ] m m m V   b b b b b b b b b b b b b b b b 7 7 7   %.",
"9.%.  n n n b b b A 9.9. .] ] ] ] ] ] ] ] ] ] ] ] ] ] ] ] ] ] ] ] ] ] ] ] m m m F   b b b b b b b b b b b b b b b b 7 7 7   %.9.",
"%.9.%.  n n n b b T 9.9.{ ] ] ] ] ] ] ] ] ] ] ] ] ] ] ] ] ] ] ] ] I H ] m m m B   b b b b b b b b b b b b b b b b 7 7 7   %.9.%.",
"9.%.9.%.  n n n b T 9.9.] ] ] ] ] ] ] ] ] ] ] ] ] ] ] ] ] ] ]   @ 9.9.l   m M   b b b b b b b b b b b b b b b b 7 7 7   %.9.%.9.",
"%.9.%.9.%.  n n n ! 9.9.] ] ] ] ] ] ] ] ] ] ] ] ] ] ] ] ] ] * ) 9.] ] m m     b b b b b b b b b b b b b b b b 7 7 7   %.9.%.9.%.",
"9.%.9.%.9.%.  n n ! 9.9.] ] ] ] ] ] ] ] ] ] ] ] ] ] ] ] ] ]   9.] ] ] ] m   b b b b b b b b b b b b b b b b 7 7 7   %.9.%.9.%.9.",
"%.9.%.9.%.9.%.  n _ 9.9.] ] ] ] ] ] ] ] ] ] ] ] ] ] ] ] ] ]   9.] ] ] ] m   b b b b b b b b b b b b b b b 7 7 7   %.9.%.9.%.9.%.",
"9.%.9.%.9.%.9.%.  _ 9.9.] ] ] ] ] ] ] ] ] ] ] ] ] ] ] ] ] ]   9.] ] ] ] m   b b b b b b b b b b b b b b 7 7 7   %.9.%.9.%.9.%.9.",
"%.9.%.9.%.9.%.9.%._ 9.9.] ] ] ] ] ] ] ] ] ] ] ] ] ] ] ] ] ] B   9.m m m   b b b b b b b b b b b b b b 7 7 7   %.9.%.9.%.9.%.9.%.",
"9.%.9.%.9.%.9.%.9._ 9.9.] ] ] ] ] ] ] ] ] ] ] ] ] ] ] ] ] t       k k   b b 9             b         7 7 7         f %.9.%.9.%.9.",
"%.9.%.9.%.9.%.9.%.} 9.9.] ] ] ] ] ] ] ] ] ] ] ] ] ] ] !   9.9.9.9.m m 9.  9.9.9.9.9.9.9.9.4 9.9.9.m   7   9.9.9.9.- a %.9.%.9.%.",
"9.%.9.%.9.%.9.%.9.} 9.9.] ] ] ] ] ] ] ] ] ] ] ] ] ] ]   9.] ] ] ] ] ] m d 9.] ] ] ] ] m 9.9.] ] ] ] m   9.] ] ] ] m   9.%.9.%.9.",
"%.9.%.9.%.9.%.9.%.} 9.9.] ] ] ] ] ] ] ] ] ] ] ] ] ] m   9.9.] ] ] ] m S 3 m m ] ] ] ] m m ] ] ] ] ] m 8.] ] ] ] ] m   %.9.%.9.%.",
"9.%.9.%.9.%.9.%.9.} 9.9.] ] ] ] ] ] ] ] ] ] ] ] ] m m m   9.] ] ] ] m   ,   m ] ] ] ] m ] 9.] ] ] ] m ] -.] ] ] ] m   9.%.9.%.9.",
"%.9.%.9.%.9.%.9.%.} 9.9.] ] ] ] ] ] ] ] ] ] ] ] m m m m   9.] ] ] ] m   b J 9.] ] ] Z ] m 9.] ] ] ] D N 9.] ] ] ] m   %.9.%.9.%.",
"7.*.7.*.7.*.7.*.7.} 9.9.] ] ] ] ] ] ] ] ] ] ] m m m m     9.] ] ] E m ;   9.] ] ] ] m m R 9.] ] ] m ] m 9.] ] ] ] m   7.*.7.*.7.",
"7.*.7.*.7.*.7.*.7.} 9.9.] ] ] ] ] ] ] ] ] ] m m m m   % 9.[ ] ] ] m   b   9.] ] ] ] ] m 9.] ] ] ] ] m 9.#.] ] ] m u *.7.*.7.*.7.",
"%.9.%.9.%.9.%.9.%.} 9.9.] ] ] ] ] ] ] ] ] m m m m   b   9.] ] ] ] m   b + 9.] ] ] ] m   9.] ] ] ] m c 9.] ] ] ] m   9.%.9.%.9.%.",
"9.%.9.%.9.%.9.%.9.] 9.9.] ] ] ] ] ] ] ] m m m m   b b   9.] ] ] ] m   $ 9.X.] ] ] C m X.9.] ] ] ] m   9.] ] ] ] m   %.9.%.9.%.9.",
"%.9.%.9.%.9.%.9.%.T 9.9.9.] ] ] ] ] ~ m m m m   b b q 9.9.] ] ] m m m   m ] ] ] ] m   9.] ] ] ] m o 9.9.] ] ] m m m   %.9.%.9.%.",
"9.%.9.%.9.%.9.%.9.  9.9.9.$.] ] 9.m m m m m   n n b   9.] ] ] ] m m ` m m ] ] ] ] m   9.] ] ] ] m   9.] ] ] ] m ( m z 9.%.9.%.9.",
"%.9.%.9.%.9.%.9.%.& A 9.9.9.9.9.m m m m m     n n n   9.] ] ] ] m ] m 9.7.] ] ] m i   9.] ] ] ] m   9.] ] ] ] C ] m   %.9.%.9.%.",
"9.%.9.%.9.%.9.%.9.;.= h 9.9.m m m m m @   9.%.  n n   9.] ] ] ] ] m 5 9.] ] ] ] m   9...] ] ] m     9.] ] ] ] ] m   %.9.%.9.%.9.",
"%.9.%.9.%.9.%.9.%.,.9.2 + m m m K     &.9.%.9.%.  n   9.^ ] ] ] m p   9.] ] ] ] m   9.] ] ] ] m     m m ] ] m m   %.9.%.9.%.9.%.",
"9.%.9.%.9.%.9.%.9.;.%.9.%.9.%.9.%.9.%.9.%.9.%.9.%.  n   m m m m   >   P m m m m   o.. m m m m O [ 9.  m m m G   %.9.%.9.%.9.%.9.",
"%.9.%.9.%.9.%.9.%.,.9.%.9.%.9.%.9.%.9.%.9.%.9.%.9.%.  n         b b 7 7 7   5.9.%.9.1.9.5.9.5.8.7.%.9.O.< < 9.%.9.%.9.%.9.%.9.%.",
"9.%.9.%.9.%.9.%.9.;.%.9.%.9.%.9.%.9.%.9.%.9.%.9.%.9.%.  n n n b b 7 7 7   %.9.%.9.%.9.%.9.%.9.*.*.9.%.9.%.9.%.9.%.9.%.9.%.9.%.9.",
"%.9.%.9.%.9.%.9.%.,.9.%.9.%.9.%.9.%.9.%.9.%.9.%.9.%.9.%.  n n n 7 7 7   %.9.%.9.%.9.%.9.%.9.%.7.7.%.9.%.9.%.9.%.9.%.9.%.9.%.9.%.",
"9.%.9.%.9.%.9.%.9.;.%.9.%.9.%.9.%.9.%.9.%.9.%.9.%.9.%.9.=.  n n 7 7   %.9.%.9.%.9.%.9.%.9.%.9.*.*.9.%.9.%.9.%.9.%.9.%.9.%.9.%.9.",
"%.9.%.9.%.9.%.9.%.,.9.%.9.%.9.%.9.%.9.%.9.%.9.%.9.%.9.%.3.9.  n 7   %.9.%.9.%.9.%.9.%.9.%.9.%.7.7.%.9.%.9.%.9.%.9.%.9.%.9.%.9.%.",
"9.%.9.%.9.%.9.%.9.;.%.9.%.9.%.9.%.9.%.9.%.9.%.9.%.9.%.9.=.%.9.    %.9.%.9.%.9.%.9.%.9.%.9.%.9.*.*.9.%.9.%.9.%.9.%.9.%.9.%.9.%.9."
};
