/* XPM */
static char *result[] = {
/* columns rows colors chars-per-pixel */
"64 64 15 1 ",
"  c #F8672C",
". c #F7682C",
"X c #F8682C",
"o c #F9682C",
"O c #F9692C",
"+ c #F8682D",
"@ c #90C200",
"# c #91C300",
"$ c #92C200",
"% c #FFC300",
"& c #FFC400",
"* c #FFC500",
"= c #00B4F1",
"- c #00B5F1",
"; c None",
/* pixels */
";;;;;;;;;;;;;;;;;;;;; XXXXXX;;;;;;;;;;;;;;;;;;;;;;;;;;;;;;;;;;;;",
";;;;;;;;;;;;;;;;;.XXXXXXXXXXXXX;;;;;;;;;;;;;;;;;;;;;;;;;;;;;;;;;",
";;;;;;;;;;;;;;;XXXXXXXXXXXXXXXXXX;;;;;;;;;;;;;;;;;;;;;;;;;;;;;;;",
";;;;;;;;;;;;;XXXXXXXXXXXXXXXXXXXXX;;;;;;;;;;;;;;;;;;;;;;;;;;;;;;",
";;;;;;;;;;;;;XXXXXXXXXXXXXXXXXXXXXXX;;;;;;;;;;;;;;;;;;;;;;;;;;;;",
";;;;;;;;;;;;XXXXXXXXXXXXXXXXXXXXXXXX;;;;;;;;;;;;;;;;;;;;;;;;;;;;",
";;;;;;;;;;;;XXXXXXXXXXXXXXXXXXXXXXXX;;;;;;;;;;;;;;;;;;;;;;;;;;;;",
";;;;;;;;;;;;XXXXXXXXXXXXXXXXXXXXXXXX;;;#;;;;;;;;;;;;;;;;;;;;;;;;",
";;;;;;;;;;;;XXXXXXXXXXXXXXXXXXXXXXX;;;;##;;;;;;;;;;;;;;;;;;;;;;;",
";;;;;;;;;;;XXXXXXXXXXXXXXXXXXXXXXXX;;;;####;;;;;;;;;;;;;;;;;;#@;",
";;;;;;;;;;;XXXXXXXXXXXXXXXXXXXXXXXX;;;;#####$;;;;;;;;;;;;;;###;;",
";;;;;;;;;;;XXXXXXXXXXXXXXXXXXXXXXXX;;;#########;;;;;;;;#######;;",
";;;;;;;;;;;XXXXXXXXXXXXXXXXXXXXXXX;;;;########################;;",
";;;;;;;;;;XXXXXXXXXXXXXXXXXXXXXXXX;;;;#######################;;;",
";;;;;;;;;;XXXXXXXXXXXXXXXXXXXXXXXX;;;;#######################;;;",
";;;;;;;;;;XXXXXXXXXXXXXXXXXXXXXXX+;;;########################;;;",
";;;;;;;;;;XXXXXXXXXXXXXXXXXXXXXXX;;;;########################;;;",
";;;;;;;;;XXXXXXXXXXXXXXXXXXXXXXXX;;;;#######################;;;;",
";;;;;;;;;XXXXXXXXXXXXXXXXXXXXXXXX;;;;#######################;;;;",
";;;;;;;;;XXXXXXXXXXXXXXXXXXXXXXXo;;;########################;;;;",
";;;;;;;;;XXXXXXXXXXXXXXXXXXXXXXX;;;;########################;;;;",
";;;;;;;;XXXXXXXXXXXXXXXXXXXXXXXX;;;;#######################;;;;;",
";;;;;;;;XXXXXXXXXXXXXXXXXXXXXXXX;;;;#######################;;;;;",
";;;;;;;;XXXXXXXXXXXXXXXXXXXXXXX ;;;########################;;;;;",
";;;;;;;;XXXXX;;;;;;;;;;;XXXXXXX;;;;########################;;;;;",
";;;;;;;XXX;;;;;;;;;;;;;;;;XXXXX;;;;#######################;;;;;;",
";;;;;;;X;;;;;;;;;;;;;;;;;;;;XXX;;;;#######################;;;;;;",
";;;;;;;;;;;;;;;;;;;;;;;;;;;;;XO;;;########################;;;;;;",
";;;;;;;;;;;;;=========;;;;;;;;;;;;########################;;;;;;",
";;;;;;;;;;==============;;;;;;;;;;#######################;;;;;;;",
";;;;;;;===================;;;;;;;;#######################;;;;;;;",
";;;;;;======================;;;;;;#######################;;;;;;;",
";;;;;;=======================;;;;;;;####################;;;;;;;;",
";;;;;========================;;;;;;;;#################;;;;;;;;;;",
";;;;;========================;;;;;;;;;;############$;;;;;;;;;;;;",
";;;;;========================;;;%;;;;;;;;;;;###;;;;;;;;;;;;;;;;;",
";;;;;=======================;;;;%%%;;;;;;;;;;;;;;;;;;;;&;;;;;;;;",
";;;;========================;;;;%%%%;;;;;;;;;;;;;;;;;%%;;;;;;;;;",
";;;;========================;;;;%%%%%%&;;;;;;;;;;;%%%%%;;;;;;;;;",
";;;;=======================-;;;%%%%%%%%%%%%%%%%%%%%%%%%;;;;;;;;;",
";;;;=======================;;;;%%%%%%%%%%%%%%%%%%%%%%%%;;;;;;;;;",
";;;========================;;;;%%%%%%%%%%%%%%%%%%%%%%%;;;;;;;;;;",
";;;========================;;;;%%%%%%%%%%%%%%%%%%%%%%%;;;;;;;;;;",
";;;========================;;;%%%%%%%%%%%%%%%%%%%%%%%%;;;;;;;;;;",
";;;=======================;;;;%%%%%%%%%%%%%%%%%%%%%%%%;;;;;;;;;;",
";;========================;;;;%%%%%%%%%%%%%%%%%%%%%%%;;;;;;;;;;;",
";;========================;;;*%%%%%%%%%%%%%%%%%%%%%%%;;;;;;;;;;;",
";;=======================;;;;%%%%%%%%%%%%%%%%%%%%%%%%;;;;;;;;;;;",
";;=======================;;;;%%%%%%%%%%%%%%%%%%%%%%%%;;;;;;;;;;;",
";========================;;;;%%%%%%%%%%%%%%%%%%%%%%%;;;;;;;;;;;;",
";========================;;;%%%%%%%%%%%%%%%%%%%%%%%%;;;;;;;;;;;;",
";=======================;;;;%%%%%%%%%%%%%%%%%%%%%%%%;;;;;;;;;;;;",
";=====;;;;;;;;;;;=======;;;;%%%%%%%%%%%%%%%%%%%%%%%%;;;;;;;;;;;;",
"===;;;;;;;;;;;;;;;;=====;;;;%%%%%%%%%%%%%%%%%%%%%%%;;;;;;;;;;;;;",
";;;;;;;;;;;;;;;;;;;;;===;;;&%%%%%%%%%%%%%%%%%%%%%%%;;;;;;;;;;;;;",
";;;;;;;;;;;;;;;;;;;;;;=;;;;%%%%%%%%%%%%%%%%%%%%%%%%;;;;;;;;;;;;;",
";;;;;;;;;;;;;;;;;;;;;;;;;;;%%%%%%%%%%%%%%%%%%%%%%%%;;;;;;;;;;;;;",
";;;;;;;;;;;;;;;;;;;;;;;;;;;%%%%%%%%%%%%%%%%%%%%%%%;;;;;;;;;;;;;;",
";;;;;;;;;;;;;;;;;;;;;;;;;;;%%%%%%%%%%%%%%%%%%%%%%%;;;;;;;;;;;;;;",
";;;;;;;;;;;;;;;;;;;;;;;;;;;;%%%%%%%%%%%%%%%%%%%%%%;;;;;;;;;;;;;;",
";;;;;;;;;;;;;;;;;;;;;;;;;;;;;;%%%%%%%%%%%%%%%%%%;;;;;;;;;;;;;;;;",
";;;;;;;;;;;;;;;;;;;;;;;;;;;;;;;%%%%%%%%%%%%%%%;;;;;;;;;;;;;;;;;;",
";;;;;;;;;;;;;;;;;;;;;;;;;;;;;;;;;;%%%%%%%%;;;;;;;;;;;;;;;;;;;;;;",
";;;;;;;;;;;;;;;;;;;;;;;;;;;;;;;;;;;;;;;;;;;;;;;;;;;;;;;;;;;;;;;;"
};
