/* XPM */
static char *result[] = {
/* columns rows colors chars-per-pixel */
"64 64 11 1 ",
"  c #93C596",
". c #94C596",
"X c #95C697",
"o c #96C797",
"O c #97C897",
"+ c #98C897",
"@ c #9AC997",
"# c #9BCA98",
"$ c #9DCB98",
"% c #9ECC98",
"& c #9FCC98",
/* pixels */
"oX.                                                          .Xo",
"+OX.                                                        .XO+",
"$#OX.                                                      .XO#$",
"&$@OX.                                                    .XO@$&",
"&%$#OX.                                                  .XO#$%&",
"&&&$@OX.                                                .XO@$&&&",
"&&&%$#OX.                                              .XO#$%&&&",
"&&&&&$@OX.                                            .XO@$&&&&&",
"&&&&&%$#OX.                                          .XO#$%&&&&&",
"&&&&&&&$@OX.                                        .XO@$&&&&&&&",
"&&&&&&&%$#OX.                                      .XO#$%&&&&&&&",
"&&&&&&&&&$@OX.                                    .XO@$&&&&&&&&&",
"&&&&&&&&&%$#OX.                                  .XO#$%&&&&&&&&&",
"&&&&&&&&&&&$@OX.                                .XO@$&&&&&&&&&&&",
"&&&&&&&&&&&%$#OX.                              .XO#$%&&&&&&&&&&&",
"&&&&&&&&&&&&&$@OX.                            .XO@$&&&&&&&&&&&&&",
"&&&&&&&&&&&&&%$#OX.                          .XO#$%&&&&&&&&&&&&&",
"&&&&&&&&&&&&&&&$@OX.                        .XO@$&&&&&&&&&&&&&&&",
"&&&&&&&&&&&&&&&%$#OX.                      .XO#$%&&&&&&&&&&&&&&&",
"&&&&&&&&&&&&&&&&&$@OX.                    .XO@$&&&&&&&&&&&&&&&&&",
"&&&&&&&&&&&&&&&&&%$#OX.                  .XO#$%&&&&&&&&&&&&&&&&&",
"&&&&&&&&&&&&&&&&&&&$@OX.                .XO@$&&&&&&&&&&&&&&&&&&&",
"&&&&&&&&&&&&&&&&&&&%$#OX.              .XO#$%&&&&&&&&&&&&&&&&&&&",
"&&&&&&&&&&&&&&&&&&&&&$@OX.            .XO@$&&&&&&&&&&&&&&&&&&&&&",
"&&&&&&&&&&&&&&&&&&&&&%$#OX.          .XO#$%&&&&&&&&&&&&&&&&&&&&&",
"&&&&&&&&&&&&&&&&&&&&&&&$@OX.        .XO@$&&&&&&&&&&&&&&&&&&&&&&&",
"&&&&&&&&&&&&&&&&&&&&&&&%$#OX.      .XO#$%&&&&&&&&&&&&&&&&&&&&&&&",
"&&&&&&&&&&&&&&&&&&&&&&&&&$@OX.    .XO@$&&&&&&&&&&&&&&&&&&&&&&&&&",
"&&&&&&&&&&&&&&&&&&&&&&&&&%$#OX.  .XO#$%&&&&&&&&&&&&&&&&&&&&&&&&&",
"&&&&&&&&&&&&&&&&&&&&&&&&&&&$@OX..XO@$&&&&&&&&&&&&&&&&&&&&&&&&&&&",
"&&&&&&&&&&&&&&&&&&&&&&&&&&&%$#OXXO#$%&&&&&&&&&&&&&&&&&&&&&&&&&&&",
"&&&&&&&&&&&&&&&&&&&&&&&&&&&&&$+oo+$&&&&&&&&&&&&&&&&&&&&&&&&&&&&&",
"&&&&&&&&&&&&&&&&&&&&&&&&&&&&&$+oo+$&&&&&&&&&&&&&&&&&&&&&&&&&&&&&",
"&&&&&&&&&&&&&&&&&&&&&&&&&&&%$#OXXO#$%&&&&&&&&&&&&&&&&&&&&&&&&&&&",
"&&&&&&&&&&&&&&&&&&&&&&&&&&&$@OX..XO@$&&&&&&&&&&&&&&&&&&&&&&&&&&&",
"&&&&&&&&&&&&&&&&&&&&&&&&&%$#OX.  .XO#$%&&&&&&&&&&&&&&&&&&&&&&&&&",
"&&&&&&&&&&&&&&&&&&&&&&&&&$@OX.    .XO@$&&&&&&&&&&&&&&&&&&&&&&&&&",
"&&&&&&&&&&&&&&&&&&&&&&&%$#OX.      .XO#$%&&&&&&&&&&&&&&&&&&&&&&&",
"&&&&&&&&&&&&&&&&&&&&&&&$@OX.        .XO@$&&&&&&&&&&&&&&&&&&&&&&&",
"&&&&&&&&&&&&&&&&&&&&&%$#OX.          .XO#$%&&&&&&&&&&&&&&&&&&&&&",
"&&&&&&&&&&&&&&&&&&&&&$@OX.            .XO@$&&&&&&&&&&&&&&&&&&&&&",
"&&&&&&&&&&&&&&&&&&&%$#OX.              .XO#$%&&&&&&&&&&&&&&&&&&&",
"&&&&&&&&&&&&&&&&&&&$@OX.                .XO@$&&&&&&&&&&&&&&&&&&&",
"&&&&&&&&&&&&&&&&&%$#OX.                  .XO#$%&&&&&&&&&&&&&&&&&",
"&&&&&&&&&&&&&&&&&$@OX.                    .XO@$&&&&&&&&&&&&&&&&&",
"&&&&&&&&&&&&&&&%$#OX.                      .XO#$%&&&&&&&&&&&&&&&",
"&&&&&&&&&&&&&&&$@OX.                        .XO@$&&&&&&&&&&&&&&&",
"&&&&&&&&&&&&&%$#OX.                          .XO#$%&&&&&&&&&&&&&",
"&&&&&&&&&&&&&$@OX.                            .XO@$&&&&&&&&&&&&&",
"&&&&&&&&&&&%$#OX.                              .XO#$%&&&&&&&&&&&",
"&&&&&&&&&&&$@OX.                                .XO@$&&&&&&&&&&&",
"&&&&&&&&&%$#OX.                                  .XO#$%&&&&&&&&&",
"&&&&&&&&&$@OX.                                    .XO@$&&&&&&&&&",
"&&&&&&&%$#OX.                                      .XO#$%&&&&&&&",
"&&&&&&&$@OX.                                        .XO@$&&&&&&&",
"&&&&&%$#OX.                                          .XO#$%&&&&&",
"&&&&&$@OX.                                            .XO@$&&&&&",
"&&&%$#OX.                                              .XO#$%&&&",
"&&&$@OX.                                                .XO@$&&&",
"&%$#OX.                                                  .XO#$%&",
"&$@OX.                                                    .XO@$&",
"$#OX.                                                      .XO#$",
"+OX.                                                        .XO+",
"oX.                                                          .Xo"
};
