/* XPM */
static char *result[] = {
/* columns rows colors chars-per-pixel */
"64 64 55 1 ",
"  c #55882D",
". c #568734",
"X c #588736",
"o c #568935",
"O c #598936",
"+ c #568739",
"@ c #588739",
"# c #578938",
"$ c #598939",
"% c #5F9637",
"& c #5F9837",
"* c #5F953B",
"= c #5F983A",
"- c #609837",
"; c #60973C",
": c #61993C",
"> c #699F3E",
", c #66A03E",
"< c #6AA23E",
"1 c #619741",
"2 c #639B40",
"3 c #699E40",
"4 c #6AA342",
"5 c #6FAA43",
"6 c #73AC45",
"7 c #74AC49",
"8 c #75B147",
"9 c #77B34C",
"0 c #7BB54E",
"q c #76B84E",
"w c #7EB94D",
"e c #7CB651",
"r c #7EB851",
"t c #80B74F",
"y c #80BA4E",
"u c #80B751",
"i c #80B951",
"p c #8EC656",
"a c #8FC857",
"s c #8EC659",
"d c #8FC85A",
"f c #90C657",
"g c #91C65A",
"h c #91C95C",
"j c #8FC660",
"k c #95CA60",
"l c #AEDE6E",
"z c #B1DE6F",
"x c #ADDF71",
"c c #B1DF71",
"v c #AEE16E",
"b c #B1E16E",
"n c #AEE172",
"m c #AEE178",
"M c #B0E171",
/* pixels */
"0e0wbMbc00u0444444446667=::=68554444ee0e6666,44<66654444+@$#8668",
"e0e0bMcn0e004444444,6667::==6688<444eee04666444456664444+@$#6666",
"e0wecMMM000e<44444446667;;==67784443e0w06667444<56664444+$OO6667",
"0ew0cMMM000t<444>4447777---:6767444500w06655<44<6666,43>$#oO7866",
"e0006866ssss0wewvbvbOO$Ocvnn@+$#*=::0009sssp0e0wlvMx676744446666",
"wew06666ppss000wlcvcO$$$lcbn@@$#*:::0008dssp0ww0lvvx666644447667",
"e0w06666ppshee0wMbbc@@O$lnlvX@$$=:&:09q0ssppe00wMxvx666644447766",
"00006686spdseer0clxcO@X xnnnOoo#2=&&0008spppy0wwnnnn777734447778",
"ssss6667=1;:444466666<6866766666000essss<44<wwwe4443XXo$##o.4444",
"ppsh86671=*:44446666666686666666e00eppsf4444wwww4443XX$$@#$#4444",
"ppgg6677=:**44445666666866666666eee0psgh<444wwwy4444Xo$$$$@#4444",
"hggg7779:*2=34446565666<77776666eeerhhhj<<<<wwww4434o#ooooo.4344",
"@@@+44446656eeee0900llvx::-;8w90==::44446676w0e077776687<<44;*::",
"@@XX444466660ee009q0lcnn::;;99w9::;:34447667000e66667766444,::;:",
"$X@X44445666we0e000qlbbv;;;;8080:;::47346767et00668667674444::::",
"OOO.44445666eeee8089lnxn-;;-y808::%:444477790eue66667677444,-::*",
"fffg444<wwwy,444yywwywww6656ywyypppj $OXXXXo444499q8::-:76665656",
"gggi4<45ywww4444wwwwwwww566<ywyypsssO#@XX$OO44449989;;;;76666666",
"ffff4444ywww44<40wwywwww6666wyyyppspoO#$o#$O44447e09;;;;76666666",
"ppfp444<eiiw<<<>wtw0wwww65660yy8spsk .X+oX$#4444e9ee;-;-46666566",
"llcx::;;ooooggssooOOwe0y00ewMMnn3444reqe66674444+@O.677676660e0e",
"Mczc::;;.OOosssd$$OO000e0e00MvvM43<4eere77764444@@Oo66666666e0u0",
"bccc;;;1.$@OgpssO$$$ee0eeww0bMxM4444e00e56574444@O$#656666660u00",
"nncc:::;O.. jsjsOo$$r00e0e0emnnx,444e0006666<454#O#*77576666000e",
"***-44,<spds5877009q444,6666*;;*444444<<0999yyyw09904,<<00006666",
"::;;4<4<ppss66750q9944446666*:;;444444447q07yyye0099444400e06666",
"::;;444<spps9666q99944446656=;::,44444447e09wytw090044440ee06676",
"%=%%4444ssss66680009444,6656::::4,444444999e0i0w8000444<eee06666",
"66574444444,5q666686::;:sfpa<444e00wqywr,444ooo.7876aads:;::9900",
"8666<444444,85666666::2:ppsp,444ww0wwrwy>44,##$#7666psss>;:;e907",
"6866<444444485666666:;;:ppph4444e0qwwwwy3444#@$$7676sssd:;*:99q0",
"6667444<4,44776686661;;;pssd4445ww0wyyww3444oo#$7776sdss:;**ee00",
"343>llcn444>ffipwwwwOXOo0wwy<444dassppsp$$O$0007444<99ww>444>>:*",
"4444vzcx444<pfffwwwwOX$owww0444,ppsspppsoOO$00004444www04,4,::::",
"4444nMzn44<4hpggwwwwOOO$w0yw6<44hsssspdso###8q0944440w00444<**::",
"44,4Mbbn<4<,ppggyyiiOX@o<yy0<44>phsspppsO.X%00904444t0t0444<****",
"eeq0o$XOgfgp77666666;1;:aaaf#XO#44<,0900099090908666ffsp8668#XX#",
"eee0OOOXgfps77686666;;;:aafhOX@o544,0099089009q08666pasp8766#$OX",
"0000$$$$spps78776686::;:fffh@XOo4444000000qq90907686ssah6667O$@$",
"w000$$$$ippp78677766::::affh$$O$43348009w8q80qq06668sfpp8667oO$$",
"xxlv4<4,00twhppiOoo.444,6685eeuezbbl. ..,<4444447668<666u0007777",
"MMMl,444ee00pgsh@@oo34446666e000zMcl$O+@444444446666666600ee6666",
"bzlz<444e000pfss@$oo444<6665we0wlncvO$$+5444444467886666euee6776",
"bnbn<<<4e0ewppppO.oo444<6776000ynnnxO$#o44444334668<666600eu6666",
"44<5iyyt4<4<appd0eee444<890966660000009e7766;:2*fhdp;;:::;;-7666",
"4444ytwy4444aspser0044449e9e6665000090906666**;:ffas2;*;;;;;6666",
"4444ywyw4444apds0w0e4444790065650e0000096786*:;;spas2*;;;;;;6666",
"44<<0www4444dssd00wq4<44e90e566700e0809066661;;:sppp=:;;;;;;6666",
"sspat00e@XX$6776xlll09e94444OOOO<66600906665;:;;dpdaaaap$Oooe000",
"pppd000e@@$$6666Mzll897e4443$$$O666600q96665;:;:dppaafdaOOO#we0e",
"gspat0eu@@$$866<bvcM0e7q4444$OOo666680906665;;;:dppsppffOo@o000w",
"sppp000u$@@$6668lllM0q9e4343 O.o666699006675;;;;dappafgfOX#oeww0",
"@@Xo4444X$+o8000:;:;lcnv@@$Xvcnlffffeewe>44,cblnpppp6666444<rwww",
"@@OX4444+@$X8000:;;:vcnn@@@Olnnxffppeeee>44,bcMnggas66664444wwww",
"@@$X4444o$@o9790::::nMbcX$$ObMnvffppww0e<444MMcnhfps6666544<wwww",
"OOOO4343.XO.q000;:;;nMMMOO#OMMbnpsgsw0ee<44<MMnxfaps6666444,wwwi",
"hkkhssppMMMn:::>psps0000eeuu09w9;:::w00e0e09>,>>600945445766XXXX",
"ssfssssgMMnn21;*hsss00990ee00w0w:-::000ee000<,54090844446665oOo#",
"sspppspfMbMn;;;:ppss0900ee0u00e0::;:e0e000e0544<9qqq44446666#@X$",
"hhhppppfmMbn>:=-ppss000000e00t0e:;:-ewwe00004<44989044446666oX#X",
"<4<4eeee666<6657ppgs;==:e00e0e0076770000=*=:9ee94444776666654443",
"4444i00u66666666ppss;*2:eee0ewe0666600901*2*999e4444866856664444",
"4444u00t66666666ppsp;;::ee0e0ew0766609q02*;;999e4444666666764444",
"444<i00066566666fpgs:&;;00e0e0ee6667000021**9eer4444768666774444"
};
