/* XPM */
static char *result[] = {
/* columns rows colors chars-per-pixel */
"64 64 94 2 ",
"   c #1B192C",
".  c #1B192D",
"X  c #261A2E",
"o  c #3C1D31",
"O  c #1D3522",
"+  c #24242D",
"@  c #223624",
"#  c #253926",
"$  c #2F3927",
"%  c #2C3A26",
"&  c #3E312A",
"*  c #343E29",
"=  c #353B30",
"-  c #441E33",
";  c #471E32",
":  c #433E28",
">  c #492033",
",  c #4C2333",
"<  c #4A2433",
"1  c #4E2533",
"2  c #692137",
"3  c #6A2338",
"4  c #6F2938",
"5  c #7F243B",
"6  c #732E39",
"7  c #1E421E",
"8  c #1F491B",
"9  c #234B1C",
"0  c #2E4E1F",
"q  c #205E14",
"w  c #2B5818",
"e  c #21720D",
"r  c #27740E",
"t  c #216C10",
"y  c #2E6F11",
"u  c #307113",
"i  c #307710",
"p  c #39791A",
"a  c #35422D",
"s  c #3A432E",
"d  c #3B4331",
"f  c #506B1F",
"g  c #477415",
"h  c #4E7B19",
"j  c #465B29",
"k  c #697E37",
"l  c #85243C",
"z  c #802B38",
"x  c #94353E",
"c  c #8F5033",
"v  c #A02740",
"b  c #A52D40",
"n  c #AC2841",
"m  c #B02E42",
"M  c #AE3841",
"N  c #B23042",
"B  c #B33D42",
"V  c #BE3E43",
"C  c #C22B44",
"Z  c #CD2C46",
"A  c #CE2E46",
"S  c #CF3B46",
"D  c #D23147",
"F  c #D33347",
"G  c #D83947",
"H  c #DB3C48",
"J  c #D83D4A",
"K  c #BF4044",
"L  c #D44147",
"P  c #D84647",
"I  c #DF4248",
"U  c #E04448",
"Y  c #E34749",
"T  c #E54949",
"R  c #E64D4C",
"E  c #E35050",
"W  c #E75651",
"Q  c #E85A53",
"!  c #EA6D60",
"~  c #EC6F61",
"^  c #EE7B69",
"/  c #228008",
"(  c #31850C",
")  c #4F8217",
"_  c #508F12",
"`  c #57861A",
"'  c #4A9216",
"]  c #668824",
"[  c #709B2F",
"{  c #6E8539",
"}  c #6A9330",
"|  c #799833",
" . c #F18C73",
".. c None",
/* pixels */
"................................................................................................................................",
"................................................................................................................................",
"................................................................................................................................",
"................................................................................................................................",
"................................................................................................................................",
"................................................................................................................................",
"................................................................................................................................",
"................................................................................................................................",
"................................................................................................................................",
"................................................................................................................................",
"................................................................................................................................",
"................................................................................................................................",
"................................................................................................................................",
"................................................................................................................................",
".....................................................     . ....................................................................",
"....................................................  + = d ....................................................................",
"....................................................  = k { d . ................................................................",
"....................................................  a } [ j $ ................................................................",
".............................................         # p ' ` f $ . ............................................................",
"............................................d s * % @ 7 q i _ h %   ............................................................",
"......................................... d { | ] h u q 7 9 i u @   ............................................................",
"........................................  = k | ] ) ( e 8 8 e t O   ............................................................",
"........................................  + = s * 0 r / e e / t O             . ................................................",
".........................................     X o & w y g g y w & > , 1 1 , > - ................................................",
"............................................  o 5 z & : c c : & z b M B B M b l - . ............................................",
"............................................< 4 N N 4 6 K K 6 4 N G U T T U G m 3 - ............................................",
"......................................... < x V L L V K P P K V L U Y T T Y U S m l - . ........................................",
"........................................  1 B R W Q Q W R R W W R T T T T T T I F v ;   ........................................",
"........................................  1 B W ~ ^ ^ ~ W W ~ ~ W T T T T T T I F v ;   ........................................",
"........................................  1 B Q ^  . .^ Q W ~ ~ W T T Y U U Y I F v ;   ........................................",
"........................................  1 B Q ^  . .^ Q R W W R T T U G G U I F v ;   ........................................",
"........................................  , M E ! ^ ^ ~ W T T T T T T U G G U I F v ;   ........................................",
"........................................  > b J E Q Q W R T T T T T T Y U U Y I F v ;   ........................................",
"......................................... - l m S U Y T T T T T T T T T T Y U S m l - . ........................................",
"............................................- 3 m G U T T T T T T T T T T U G m 3 - ............................................",
"............................................  ; v D H I I I I I I I I I I H D v ;   ............................................",
"............................................  ; v A D F F F F F F F F F F D A v ;   ............................................",
"............................................. - l n C Z Z Z Z Z Z Z Z Z Z C n l - . ............................................",
"................................................- 2 n Z Z Z Z Z Z Z Z Z Z n 2 - ................................................",
"................................................. - l v v v v v v v v v v l - . ................................................",
"....................................................- ; ; ; ; ; ; ; ; ; ; - ....................................................",
".....................................................                     . ....................................................",
"................................................................................................................................",
"................................................................................................................................",
"................................................................................................................................",
"................................................................................................................................",
"................................................................................................................................",
"................................................................................................................................",
"................................................................................................................................",
"................................................................................................................................",
"................................................................................................................................",
"................................................................................................................................",
"................................................................................................................................",
"................................................................................................................................",
"................................................................................................................................",
"................................................................................................................................",
"................................................................................................................................",
"................................................................................................................................",
"................................................................................................................................",
"................................................................................................................................",
"................................................................................................................................",
"................................................................................................................................",
"................................................................................................................................",
"................................................................................................................................"
};
