/* XPM */
static char *result[] = {
/* columns rows colors chars-per-pixel */
"64 64 247 2 ",
"   c #06190C",
".  c #0B1611",
"X  c #0B2519",
"o  c #132D1E",
"O  c #0B2E21",
"+  c #172B22",
"@  c #143425",
"#  c #173A2A",
"$  c #1B3C31",
"%  c #0D392F",
"&  c #28362B",
"*  c #273838",
"=  c #252F2A",
"-  c #5C3D21",
";  c #542A17",
":  c #1D4B3D",
">  c #1C4434",
",  c #1C4732",
"<  c #26422F",
"1  c #234132",
"2  c #28483A",
"3  c #344837",
"4  c #35523D",
"5  c #255E3B",
"6  c #795A38",
"7  c #69603E",
"8  c #1A5445",
"9  c #154141",
"0  c #284B45",
"q  c #374C45",
"w  c #295848",
"e  c #325B4D",
"r  c #3B5C4C",
"t  c #355745",
"y  c #2A5C52",
"u  c #3D5D53",
"i  c #385A56",
"p  c #35654F",
"a  c #2B6656",
"s  c #3E6253",
"d  c #36645C",
"f  c #3B645B",
"g  c #366956",
"h  c #3D7258",
"j  c #3B6C63",
"k  c #387563",
"l  c #397B70",
"z  c #424C4B",
"x  c #494E46",
"c  c #435B4A",
"v  c #465649",
"b  c #475B57",
"n  c #545754",
"m  c #426554",
"M  c #44625D",
"N  c #496957",
"B  c #58675D",
"V  c #4E6D55",
"C  c #67675A",
"Z  c #736F59",
"A  c #456B65",
"S  c #4A6461",
"D  c #586A69",
"F  c #4A7C69",
"G  c #477868",
"H  c #567669",
"J  c #567873",
"K  c #6A6A66",
"L  c #657669",
"P  c #787667",
"I  c #677A76",
"U  c #767D79",
"Y  c #786F67",
"T  c #645D4B",
"R  c #866039",
"E  c #896D55",
"W  c #867969",
"Q  c #967B69",
"!  c #8A7D71",
"~  c #3C8C73",
"^  c #63825F",
"/  c #5A846B",
"(  c #498C75",
")  c #588677",
"_  c #4B866F",
"`  c #678879",
"'  c #75877B",
"]  c #73937E",
"[  c #6D896B",
"{  c #70A17F",
"}  c #899135",
"|  c #888679",
" . c #998677",
".. c #908F6F",
"X. c #A68A75",
"o. c #AB9A7A",
"O. c #B1906F",
"+. c #E0DF4E",
"@. c #5D7E8F",
"#. c #5A9787",
"$. c #5E8E81",
"%. c #688A85",
"&. c #738B82",
"*. c #738D89",
"=. c #788887",
"-. c #689687",
";. c #76968A",
":. c #799995",
">. c #779192",
",. c #5DA690",
"<. c #77A899",
"1. c #71AA8F",
"2. c #7DB7AD",
"3. c #848A86",
"4. c #968D84",
"5. c #85928A",
"6. c #889485",
"7. c #99958A",
"8. c #879998",
"9. c #9A9A94",
"0. c #A79988",
"q. c #B59C84",
"w. c #A69D95",
"e. c #AE968A",
"r. c #85A495",
"t. c #97A699",
"y. c #8BB29A",
"u. c #8CA792",
"i. c #A8A587",
"p. c #B3A785",
"a. c #AEA69B",
"s. c #ABA798",
"d. c #B4A69A",
"f. c #B3AA9D",
"g. c #B9A896",
"h. c #B8B899",
"j. c #B0B492",
"k. c #BE9FAA",
"l. c #88A8A4",
"z. c #96A9A7",
"x. c #9BB3AE",
"c. c #97B3A7",
"v. c #9AB8B3",
"b. c #8EB1B3",
"n. c #A3ABA5",
"m. c #A8ACA6",
"M. c #BAAEA2",
"N. c #B2ABA2",
"B. c #A5B3AC",
"V. c #A8B7A8",
"C. c #BBB4AB",
"Z. c #B7B6A8",
"A. c #A3BAB5",
"S. c #A9B9B5",
"D. c #B8BAB5",
"F. c #8E9CA4",
"G. c #C7A98A",
"H. c #C6B88B",
"J. c #C7A796",
"K. c #C7B89A",
"L. c #C3B4A9",
"P. c #C7BAA9",
"I. c #C3BBB3",
"U. c #CABEB3",
"Y. c #C4BDB7",
"T. c #D2B6AA",
"R. c #D8AB8D",
"E. c #94C4A7",
"W. c #9DC1B1",
"Q. c #AAC4AC",
"!. c #B6C7AA",
"~. c #ABC5B9",
"^. c #B2C3BB",
"/. c #BCCABD",
"(. c #B8C6B6",
"). c #B3D2BB",
"_. c #BCC290",
"`. c #C6C69B",
"'. c #D2C89E",
"]. c #CACAA8",
"[. c #D5C7AA",
"{. c #D7D4A9",
"}. c #C4C4BC",
"|. c #CCC4B9",
" X c #C5CBBA",
".X c #D6C8B7",
"XX c #D2D5B7",
"oX c #E8C8A7",
"OX c #E6D6B8",
"+X c #F3CDB0",
"@X c #ECE0BF",
"#X c #E5D594",
"$X c #B3BDC5",
"%X c #ABC8C3",
"&X c #B4CAC5",
"*X c #BDCCC3",
"=X c #BCCDC9",
"-X c #B4C6C6",
";X c #BAD5CA",
":X c #B2CFCD",
">X c #BBE0CE",
",X c #CACAC4",
"<X c #CBCDCA",
"1X c #C4CBC6",
"2X c #D4CDC4",
"3X c #C4D3CB",
"4X c #CBD2CD",
"5X c #C6D7C8",
"6X c #DAD6C8",
"7X c #C3D4D2",
"8X c #CBD4D1",
"9X c #CDDCD5",
"0X c #CCDDD9",
"qX c #C5DAD5",
"wX c #D3DAD3",
"eX c #D4DBD7",
"rX c #E6D4C7",
"tX c #E4DDD3",
"yX c #EBDDD4",
"uX c #F4DED0",
"iX c #C5E1CF",
"pX c #D9E3CB",
"aX c #CDE3DA",
"sX c #D7E3DC",
"dX c #EBEACB",
"fX c #E8E3D9",
"gX c #F7E7D9",
"hX c #F1F3D8",
"jX c #DAE5E2",
"kX c #DCE9E3",
"lX c #DBE8E6",
"zX c #DAF3EA",
"xX c #E2ECE6",
"cX c #E3EEE9",
"vX c #EAE9E3",
"bX c #F3EDE5",
"nX c #E9F2EE",
"mX c #E5F4EA",
"MX c #F5F3EB",
"NX c #F8F5E9",
"BX c #ECF6F4",
"VX c #F3F6F4",
"CX c #FAFAF5",
"ZX c #F6FAF9",
"AX c #FCFDFC",
"SX c #F7F7F3",
"DX c None",
/* pixels */
"DXDXDXDXDXDXDXDXDXDXDXDXDXDXDXDXDXDXDXDXDXDXDXDXDXDXDXDXDXDXDXDXDXDXDXDXDXDXDXDXDXDXDXDXDXDXDXDXDXDXDXDXDXDXDXDXDXDXDXDXDXDXDXDX",
"DXDXDXDXDXDXDXDXDXDXDXDXDXDXDXDXDXDXDXDXDXDXDXDXDXDXDXDXDXDXDXDXDXDXDXDXDXDXDXDXDXDXDXDXDXDXDXDXDXDXDXDXDXDXDXDXDXDXDXDXDXDXDXDX",
"DXDXDXDXDXDXDXDXDXDXDXDXDXDXDXDXDXDXDXDXDXDXDXDXDXDXDXDXDXDXDXDXDXDXDXDXDXDXDXDXDXDXDXDXDXDXDXDX' B ^ < + & . 4 I I !.(.DXDXDXDX",
"DXDXDXDXDXDXDXDXDXDXDXDXDXDXDXDXDXDXDXDXDXDXDXDXDXDXDXDXDXDXDXDXDXDXDXDXDXDXDXDXDXDXDXN 1.v 3 + = * ..} r V A b l.;X`.; DXDXDXDX",
"DXDXDXDXDXDXDXDXDXDXDXDXDXDXDXDXDXDXDXDXDXDXDXDXDXDXDXDXDXDXDXDXDXDXDXDXDXDXI ;.n.m , < 4 c H 3 Z [ +.. #X@.=.:X9XW 6 DXDXDXDXDX",
"DXDXDXDXDXDXDXDXDXDXDXDXDXDXDXDXDXDXDXDXDXDXDXDXDXDXDXDXDXDXDXDXDXDXH w F :.V o X X < ` 5 H p :.A.c.b.n l.3X-XmX- [.DX{.K.DXDXDX",
"DXDXDXDXDXDXDXDXDXDXDXDXDXDXDXDXDXDXDXDXDXDXDXDXDXDXDXDXDXDXDX@ : _ J p s < 1 < / m 1.{ ^ : j J G %.b.b.:X:XcX7 6 H.dXOXi.DXDXDX",
"DXDXDXDXDXDXDXDXDXDXDXDXDXDXDXDX( DXDXDXDXDXDXDXDXDXDXDXr s N S M 0 g m g F / p / x.-./ ).zX>XzX>X%X<.b.1X-X{.E `.dX`.I.DXDXDXDX",
"DXDXDXDXDXDXDXDXDXDXDXDXDXDXDXp c D 1 ` DXDXDXDXDXDX@ , b > X X 8 l ) H ] r./ { s.v.:X<.z.*XnX).aX0Xv.u.-.sX6X| {.P ..DXDXDXDXDX",
"DXDXDXDXDXDXDXDXDXDXDXDXDXDXDX* N ] C v.D DXDXt 1 N 2 % : y k ~ $.| r.[ E.] E.E.5XxX;Xr.v.=XSXeXqXlX%.D 2XZ hXXXZ  XDXDXDXDXDXDX",
"DXDXDXDXDXDXDXDXDXDXDXDXDXDX3 q L ;.' V * $ # 3 @ o , > 8 a <.,.E.[ E.~.;X).y.~.5Xz.c.b.%X=Xz.%.l.F. XdXNX].h.p.).DXDXDXDXDXDXDX",
"DXDXDXDXDXDXDXDXDXDXDXDXDX1 H ' I u.B s c t # o O : a #.( { <.#.b.;./.3X~.3X5X7XqXZXz.A.L v.eXB. X!.pXdX[.`.p.[ DXDXDXDXDXDXDXDX",
"DXDXDXDXDXDXDXDXDXDXDXDX@ 3 / ' t 4 t 2 @ O @ 8 a ,.~ _ e ) J l.:X%Xc mX5X=Xv.8.:.%X7.cX~.3Xm.$Xm._.!._.H.P ..DXDXDXDXDXDXDXDXDX",
"DXDXDXDXDXDXDXDXDXDXDXDXt B N 4 t m t 1 2 y h <.,.2.b.;.) ) ` z.;X0XsXr.| ^.jX8.NXy.;XqXB.3.&.9.dX'.i.j.[ Z.DXDXDXDXDXDXDXDXDXDX",
"DXDXDXDXDXDXDXDXDXDXDX3 H r c N w , % > 8 l ~ k G -.W.c.r.A.x.v.7XjXfXVXaX` S.<X6.0.(.4XD.h.hXXXrXZ.[ P `.DXDXDXDXDXDXDXDXDXDXDX",
"DXDXDXDXDXDXDXDXDXDXDXr m e 2 , % > k ( ) -.%.;.*.c.A.%X*X0X3X7XeXVXnXgXwX=XtXM.i.W ! h.@XXXK.N.7...Z {.DXDXDXDXDXDXDXDXDXDXDXDX",
"DXDXDXDXDXDXDXDXDXDX= q 2 s w w a _ -.( _ H ' ;.x.-X8XeXlXjX0X8XwXvXNX9.q n 4.X.+XR.R.q.O.Q q.P.P...j.DXDXDXDXDXDXDXDXDXDXDXDXDX",
"DXDXDXDXDXDXDXDXDXDX# t 4 g k k k a k N ` / r.t.S.jXcXnXxXxXB.& B V.!.s.g.0.|  .'.+X+XoXR.O.E T o.DXDXDXDXDXDXDXDXDXDXDXDXDXDXDX",
"DXDXDXDXDXDXDXDXDXDXt s : a y a ~ G H ' y.^.^.&X0XxXcX=.U ~.x.!.).).Q.!.L.d.! R R.+X+XoXR.Q Q X.DXDXDXDXDXDXDXDXDXDXDXDXDXDXDXDX",
"DXDXDXDXDXDXDXDXDXt a y 8 k ( ( ` ] ;.Q.3X9XsXjX=.F.z.z.x.z.;X5X!.!.pXXXZ.s.E oXuXuXrXT.Q R.DXDXDXDXDXDXDXDXDXDXDXDXDXDXDXDXDXDX",
"DXDXDXDXDXDXDXDXb g 8 8 ~ #.$.` r.y.^.8XsXvXcXb 8.I 8.D S.t.~.eXaX&XQ.).!.dXuXuXuXrXg.J.J.DXDXDXDXDXDXDXDXDXDXDXDXDXDXDXDXDXDXDX",
"DXDXDXDXDXDXDXDXy % 9 l H -.;.;.c.&XqXjXnXnXVXVXAXAX=.8.z.I B.S.y.^.u. XgXyXyXrX.XoXq.X.e.DXDXDXDXDXDXDXDXDXDXDXDXDXDXDXDXDXDXDX",
"DXDXDXDXDXDXDXf w % y _ -.;.;.c./.9XjXzXBXZXVXCXAXAXAXAXAXAX8Xz 5.B.B.yXyXrXP.J.J.o.O.q.| DXDXDXDXDXDXDXDXDXDXDXDXDXDXDXDXDXDXDX",
"DXDXDXDXDXDXm g % > G -.-.<.c.;XkXkXmXZXZXAXCXAXAXAXAXAXAXZXCXMXfXyXXXU.P.g.g...X.H.i.h.v DXDXDXDXDXDXDXDXDXDXDXDXDXDXDXDXDXDXDX",
"DXDXDXDXDXDXN 0 a e J -.%.v.;XmXBXBXZXZXAXAXAXAXAXAXAXAXCXCXNXtX2XT.f.g.L.0.P Z.].XXZ. XK DXDXDXDXDXDXDXDXDXDXDXDXDXDXDXDXDXDXDX",
"DXDXDXDXDX3 s 0 e e ) %.<.%X0XmXAXZXZXAXAXAXAXAXAXAXCXSXNXfXrXU.M.w.L.4.W DXDX8./.1X(.V.DXDXDXDXDXDXDXDXDXDXDXDXDXDXDXDXDXDXDXDX",
"DXDXDXDXDXr w e a F ) *.l.~.=XcXZXAXZXAXAXAXAXCXAXCXMXbXfX2XM.s.N.4.P P DXDXDXDXB.n. XV.DXDXDXDXDXDXDXDXDXDXDXDXDXDXDXDXDXDXDXDX",
"DXDXDXDXH 4 2 f f F J ;.b.=XqXlXVXAXAXAXAXAXAXAXSXbXyX2XI.a.M.0.P Y DXDXDXDXDXDX5.5.B.5.DXDXDXDXDXDXDXDXDXDXDXDXDXDXDXDXDXDXDXDX",
"DXDXDXDXb 5 : k $.$.:.l.:XsXzXnXZXAXAXAXAXCXCXMXNX2XY.N.w.C.3.n DXDXDXDXDXDXDXDXDXD.S.DXDXDXDXDXDXDXDXDXDXDXDXDXDXDXDXDXDXDXDXDX",
"DXDXDXDXH p w F G H b.:X0XzXZXZXAXZXAXSXCXSXvXtX2XI.a.N.N.P Y DXDXDXDXDXDXDXDXDXDX3.n.DXDXDXDXDXDXDXDXDXDXDXDXDXDXDXDXDXDXDXDXDX",
"DXDXDXDXj y g k F H l.S.7XBXVXAXAXAXCXSXbXfX6XL.d.s.a.w.W DXDXDXDXDXDXDXDXDXDXDXDX4Xv DXDXDXDXDXDXDXDXDXDXDXDXDXDXDXDXDXDXDXDXDX",
"DXDXDXDXf 0 g _ _ >.b.7XsXnXAXAXAXZXSXbXtX|.C.d.f.f.4.C DXDXDXDXDXDXDXDXDXDXDXtX|.m.DXDXDXDXDXDXDXDXDXDXDXDXDXDXDXDXDXDXDXDXDXDX",
"DXDXDX=.A 0 j F G *.v.=XjXBXAXAXCXCXMXtX2XY.L.M.N.4.x <XDXDXDXDXDXDXDXDXDXDXDXn.n.B.DXDXDXDXDXDXDXDXDXDXDXDXDXDXDXDXDXDXDXDXDXDX",
"DXDXDXDXc 0 G ) I l.-XjXBXVXAXCXCXbXvXwX,XY.L.L.4.Y DXDXDXDXDXDXDXDXDXDXDXDXDXDXDXDXDXDXDXDXDXDXDXDXDXDXDXDXDXDXDXDXDXDXDXDXDXDX",
"DXDXDXDXm d f G J x.7XcXVXZXCXMXbXgX2X0XeXU.P.I.C DXDXDXDXDXDXDXDXDXDXDXDXDXDXDXDXDXDXDXDXDXDXDXDXDXDXDXDXDXDXDXDXDXDXDXDXDXDXDX",
"DXDXDXDXi y q G *.-XlXZXAXAXCXNXuXrX1XCXU.T.|.! DXDXDXDXDXDXDXDXDXDXDXDXDXDXDXDXDXDXDXDXDXDXDXDXDXDXDXDXDXDXDXDXDXDXDXDXDXDXDXDX",
"DXDXDXDX0 i u ) 8.*XzXVXCXAXSXbX+X).NXJ.L.L.w.k.DXDXDXDXDXDXDXDXDXDXDXDXDXDXDXDXDXDXDXDXDXDXDXDXDXDXDXDXDXDXDXDXDXDXDXDXDXDXDXDX",
"DXDXDXDX* i i ) :.^.0XnXVXVXbXa.u.t.J.L.g.P.! T.I.DXDXDXDXDXDXDXDXDXDXDXDXDXDXDXDXDXDXDXDXDXDXDXDXDXDXDXDXDXDXDXDXDXDXDXDXDXDXDX",
"DXDXDXDXDXi y A =.S.qXxXcX<Xc ' v T.U.T.L.7.[.[..XB DXDXDXDXDXDXDXDXDXDXDXDXDXDXDXDXDXDXDXDXDXDXDXDXDXDXDXDXDXDXDXDXDXDXDXDXDXDX",
"DXDXDXDXDX0 j j ' S.3XeXjXvXv x .XU.U.d.I. .K..X XZ.DXDXDXDXDXDXDXDXDXDXDXDXDXDXDXDXDXDXDXDXDXDXDXDXDXDXDXDXDXDXDXDXDXDXDXDXDXDX",
"DXDXDXDXDX0 f i I z.3X9XsXwX& pX}.I.L.N.L.DX]. X6X(.DXDXDXDXDXDXDXDXDXDXDXDXDXDXDXDXDXDXDXDXDXDXDXDXDXDXDXDXDXDXDXDXDXDXDXDXDXDX",
"DXDXDXDXDXDXe d H 8.^.4XwXwX].<X,XY.N.N.w.DXDXDXs.(.DXDXDXDXDXDXDXDXDXDXDXDXDXDXDXDXDXDXDXDXDXDXDXDXDXDXDXDXDXDXDXDXDXDXDXDXDXDX",
"DXDXDXDXDXDX0 f A :.A.3X4XwXwX,X,XD.w.d. .DXDXDXDXN.DXDXDXDXDXDXDXDXDXDXDXDXDXDXDXDXDXDXDXDXDXDXDXDXDXDXDXDXDXDXDXDXDXDXDXDXDXDX",
"DXDXDXDXDXDXDXw d ` A.*X4X4X2X<XY.C.4.e.Q DXDXDXDXDXDXDXDXDXDXDXDXDXDXDXDXDXDXDXDXDXDXDXDXDXDXDXDXDXDXDXDXDXDXDXDXDXDXDXDXDXDXDX",
"DXDXDXDXDXDXDX' j A F.*X4X4X,X,XY.C. .q.0.DXDXDXDXDXDXDXDXDXDXDXDXDXDXDXDXDXDXDXDXDXDXDXDXDXDXDXDXDXDXDXDXDXDXDXDXDXDXDXDXDXDXDX",
"DXDXDXDXDXDXDXDX: i J V.*X1X<X}.Y.C.Q G.Q Q O.X.DXDXDXDXDXDXDXDXDXDXDXDXDXDXDXDXDXDXDXDXDXDXDXDXDXDXDXDXDXDXDXDXDXDXDXDXDXDXDXDX",
"DXDXDXDXDXDXDXDXDXy u :.^.1X<X}.C.M. .q.G.X. .X. .C DXDXDXDXDXDXDXDXDXDXDXDXDXDXDXDXDXDXDXDXDXDXDXDXDXDXDXDXDXDXDXDXDXDXDXDXDXDX",
"DXDXDXDXDXDXDXDXDXDXi H n./.1X}.C.a.q.q.K.o.0.J.X.Y DXDXDXDXDXDXDXDXDXDXDXDXDXDXDXDXDXDXDXDXDXDXDXDXDXDXDXDXDXDXDXDXDXDXDXDXDXDX",
"DXDXDXDXDXDXDXDXDXDXI e *.S.1X,XC.Z.g.X.[.].D.7.4.DXDXDXDXDXDXDXDXDXDXDXDXDXDXDXDXDXDXDXDXDXDXDXDXDXDXDXDXDXDXDXDXDXDXDXDXDXDXDX",
"DXDXDXDXDXDXDXDXDXDXDXz i 8.D./.Y.M.f.p.K.OXwXs.K DXDXDXDXDXDXDXDXDXDXDXDXDXDXDXDXDXDXDXDXDXDXDXDXDXDXDXDXDXDXDXDXDXDXDXDXDXDXDX",
"DXDXDXDXDXDXDXDXDXDXDXDXb M 8.-X-XC.M.g.K.o.hX1XDXDXDXDXDXDXDXDXDXDXDXDXDXDXDXDXDXDXDXDXDXDXDXDXDXDXDXDXDXDXDXDXDXDXDXDXDXDXDXDX",
"DXDXDXDXDXDXDXDXDXDXDXDXDXDXS :.~.Y.Z.a.g...`.N.DXDXDXDXDXDXDXDXDXDX3   X DXDXDXDXDXDXDXDXDXDXDXDXDXDXDXDXDXDXDXDXDXDXDXDXDXDXDX",
"DXDXDXDXDXDXDXDXDXDXDXDXDXDXDXb =.x.D.Z.h.K...| DXDXDXDXDXDXx   < o , < + DXDXDXDXDXDXDXDXDXDXDXDXDXDXDXDXDXDXDXDXDXDXDXDXDXDXDX",
"DXDXDXDXDXDXDXDXDXDXDXDXDXDXDXDXb I 5.C.N.g...| DXDXDXDX  . @ m 1 c H 1 DXDXDXDXDXDXDXDXDXDXDXDXDXDXDXDXDXDXDXDXDXDXDXDXDXDXDXDX",
"DXDXDXDXDXDXDXDXDXDXDXDXDXDXDXDXDXDXb U t.s.j.z z ` h p c 3 c c V.8.M z DXDXDXDXDXDXDXDXDXDXDXDXDXDXDXDXDXDXDXDXDXDXDXDXDXDXDXDX",
"DXDXDXDXDXDXDXDXDXDXDXDXDXDXDXDXDXDXDXDXL =.9.9.5.' ] H p [ D L B S.>.I DXDXDXDXDXDXDXDXDXDXDXDXDXDXDXDXDXDXDXDXDXDXDXDXDXDXDXDX",
"DXDXDXDXDXDXDXDXDXDXDXDXDXDXDXDXDXDXDXDXDXDXK U 7.t.5.5.] J I =.&.*.@.D q DXDXDXDXDXDXDXDXDXDXDXDXDXDXDXDXDXDXDXDXDXDXDXDXDXDXDX",
"DXDXDXDXDXDXDXDXDXDXDXDXDXDXDXDXDXDXDXDXDXDXDXDXK U m.N.m.t.| ' I ' 7XD.@.S DXDXDXDXDXDXDXDXDXDXDXDXDXDXDXDXDXDXDXDXDXDXDXDXDXDX",
"DXDXDXDXDXDXDXDXDXDXDXDXDXDXDXDXDXDXDXDXDXDXDXDXDXDXK t. X.X.X5.' *.xXz.S S b DXDXDXDXDXDXDXDXDXDXDXDXDXDXDXDXDXDXDXDXDXDXDXDXDX",
"DXDXDXDXDXDXDXDXDXDXDXDXDXDXDXDXDXDXDXDXDXDXDXDXDXDXDXDXDX0.[.z z U c.D -X>.b q DXDXDXDXDXDXDXDXDXDXDXDXDXDXDXDXDXDXDXDXDXDXDXDX",
"DXDXDXDXDXDXDXDXDXDXDXDXDXDXDXDXDXDXDXDXDXDXDXDXDXDXDXDXDXDXDXDXDXL q = *.q &.M 0 q DXDXDXDXDXDXDXDXDXDXDXDXDXDXDXDXDXDXDXDXDXDX",
"DXDXDXDXDXDXDXDXDXDXDXDXDXDXDXDXDXDXDXDXDXDXDXDXDXDXDXDXDXDXDXDXDXDXDXDXDXDX. @ u 1 * $ DXDXDXDXDXDXDXDXDXDXDXDXDXDXDXDXDXDXDXDX",
"DXDXDXDXDXDXDXDXDXDXDXDXDXDXDXDXDXDXDXDXDXDXDXDXDXDXDXDXDXDXDXDXDXDXDXDXDXDXDXDXDXDXDX+ O DXDXDXDXDXDXDXDXDXDXDXDXDXDXDXDXDXDXDX",
"DXDXDXDXDXDXDXDXDXDXDXDXDXDXDXDXDXDXDXDXDXDXDXDXDXDXDXDXDXDXDXDXDXDXDXDXDXDXDXDXDXDXDXDXDXDXDXDXDXDXDXDXDXDXDXDXDXDXDXDXDXDXDXDX"
};
