/* XPM */
static char *result[] = {
/* columns rows colors chars-per-pixel */
"32 32 52 1 ",
"  c #202030",
". c #4C3A29",
"X c #5B4327",
"o c #514A31",
"O c #775523",
"+ c #615831",
"@ c #7C652A",
"# c #353345",
"$ c #3B3B4D",
"% c #565246",
"& c #414355",
"* c #454558",
"= c #48475B",
"- c #6B6975",
"; c #9E631A",
": c #A3701C",
"> c #817431",
", c #867D47",
"< c #A78024",
"1 c #A78228",
"2 c #AD8B3E",
"3 c #B19F32",
"4 c #CD911F",
"5 c #D39B1D",
"6 c #D39935",
"7 c #D8AA25",
"8 c #D7AD29",
"9 c #DCBA2C",
"0 c #E1CA33",
"q c #8C855D",
"w c #B7A848",
"e c #BCB05E",
"r c #8E8A7A",
"t c #D9A14B",
"y c #E6D349",
"u c #ECDB5F",
"i c #EEE07C",
"p c #F2E374",
"a c #7C808C",
"s c #908F98",
"d c #90949F",
"f c #A0A3AE",
"g c #F7EC8A",
"h c #F0E499",
"j c #F9F1A7",
"k c #B9C4CB",
"l c #C3CED4",
"z c #FBF6C4",
"x c #D8E1E4",
"c c #FDFAE2",
"v c #EBF0F2",
"b c None",
/* pixels */
"bbbbbbbbbbbbbbbbbbbbbbbbbbbbbbbb",
"bbbbbbbbbbbbbbbbbbbbbbbbbbbbbbbb",
"bbbbbbbbbbbbbbbbbbbbbbbbbbbbbbbb",
"bbbbbbbbbbbbbbbbbbbbbbbbbbbbbbbb",
"bbbbbbbbbbbbbbbbbbbbbbbbbbbbbbbb",
"bbbbbbbbbbbbbbbbbbbbbbbbbbbbbbbb",
"bbbbbbbbbbbbbbbbbbbbbbbbbbbbbbbb",
"bbbbbbbbbbbbbbbbbbbbbbbbbbbbbbbb",
"bbbbbbbbbbbbbbbbbbbbbbbbbbbbbbbb",
"bbbbbbbbbbbbbbbbbbbbbbbbbbbbbbbb",
"bbbbbbbbX,qqqqqqqqqrrrs-bbbbbbbb",
"bbbbb-q@.>144444444662q%,r-bbbbb",
"bbbb zw@.50uuuuuuuuuuuyo>wz bbbb",
"bbbb i bO7upggggggzzccg>b u bbbb",
"bbbb u bO7upggggggggccg>b h bbbb",
"bbbb u bO7uggggggggggjg>b u bbbb",
"bbbb u bO7ugggggggggggg>b u bbbb",
"bbbb p+ O7ypppggggggpgp> +p bbbb",
"bbbbbwu7O50yuppggggggu0>yuwbbbbb",
"bbbbbb   :590000000009<   bbbbbb",
"bbbbbbbbbbXOOOO;;OOOOXbbbbbbbbbb",
"bbbbbbbbbbbbbbouu%bbbbbbbbbbbbbb",
"bbbbbbbbbbbbbX,ttr-bbbbbbbbbbbbb",
"bbbbbbbbbbbbbOyuuu,bbbbbbbbbbbbb",
"bbbbbbbbbbbbbbo48obbbbbbbbbbbbbb",
"bbbbbbbbbbbbbb3ggebbbbbbbbbbbbbb",
"bbbbbbbbbb+,qeuuguerr-bbbbbbbbbb",
"bbbbbbbbb 577777777777 bbbbbbbbb",
"bbbbbbb $&ss&&ss&&ss&&ss bbbbbbb",
"bbbbbbb #=xx==xx==xx==xv bbbbbbb",
"bbbbbbb addddddddddddddf bbbbbbb",
"bbbbbbb kl##ll##ll##ll#* bbbbbbb"
};
