/* XPM */
static char *result[] = {
/* columns rows colors chars-per-pixel */
"64 64 202 2 ",
"   c #29293A",
".  c #4B3B2A",
"X  c #5A4529",
"o  c #5D4C2B",
"O  c #4D4731",
"+  c #5A5235",
"@  c #664B27",
"#  c #6A542A",
"$  c #755423",
"%  c #715B2A",
"&  c #7A5B28",
"*  c #635C39",
"=  c #655734",
"-  c #745E30",
";  c #7F6327",
":  c #766B33",
">  c #75693A",
",  c #7E7232",
"<  c #6A623A",
"1  c #2F2F40",
"2  c #343344",
"3  c #3B3B4C",
"4  c #373749",
"5  c #424355",
"6  c #46465A",
"7  c #4C4B5C",
"8  c #58555C",
"9  c #675D4A",
"0  c #615B41",
"q  c #716B43",
"w  c #726C49",
"e  c #776946",
"r  c #7C7343",
"t  c #79724A",
"y  c #686357",
"u  c #756C55",
"i  c #686247",
"p  c #545463",
"a  c #5A5B6B",
"s  c #565B68",
"d  c #5C616E",
"f  c #767469",
"g  c #666877",
"h  c #666773",
"j  c #767376",
"k  c #6D6D71",
"l  c #9D6E1F",
"z  c #A2731E",
"x  c #895F21",
"c  c #8F6A23",
"v  c #866827",
"b  c #927227",
"n  c #997525",
"m  c #826E36",
"M  c #837331",
"N  c #8B7C35",
"B  c #86773A",
"V  c #907027",
"C  c #A77A24",
"Z  c #887E48",
"A  c #857A54",
"S  c #847D6A",
"D  c #B5831F",
"F  c #968539",
"G  c #968235",
"H  c #A98627",
"J  c #BD8E2F",
"K  c #B68526",
"L  c #BD9326",
"P  c #A88838",
"I  c #B49233",
"U  c #BD9434",
"Y  c #B39437",
"T  c #BAA637",
"R  c #C09525",
"E  c #C29D2C",
"W  c #CA9C23",
"Q  c #C19E3E",
"!  c #C39E37",
"~  c #C6AD2F",
"^  c #CCAE2D",
"/  c #C7A32C",
"(  c #D5A32F",
")  c #D8AB26",
"_  c #D8B32D",
"`  c #C6A436",
"'  c #D6AB36",
"]  c #DDB634",
"[  c #DDBA3C",
"{  c #D6B937",
"}  c #CCB93F",
"|  c #DFC233",
" . c #E2C93B",
".. c #8D834D",
"X. c #9C884E",
"o. c #968747",
"O. c #9F9246",
"+. c #8C865C",
"@. c #8C8353",
"#. c #978A57",
"$. c #9B9153",
"%. c #A69749",
"&. c #AF9750",
"*. c #B6A546",
"=. c #B7A853",
"-. c #BEB25B",
";. c #8A8566",
":. c #958B64",
">. c #93876F",
",. c #9D8D69",
"<. c #9E8D63",
"1. c #8F8A7B",
"2. c #898577",
"3. c #999375",
"4. c #948B73",
"5. c #A49763",
"6. c #A2957B",
"7. c #B8AB66",
"8. c #C19444",
"9. c #C5A342",
"0. c #C9A44D",
"q. c #D7A840",
"w. c #CBB94B",
"e. c #D9BD4E",
"r. c #C6A954",
"t. c #CCBD53",
"y. c #C9B653",
"u. c #DEB050",
"i. c #D0AB59",
"p. c #C8BB62",
"a. c #D8C24D",
"s. c #CFC059",
"d. c #D2C35D",
"f. c #DAC653",
"g. c #E4C94E",
"h. c #E4CB46",
"j. c #E5D144",
"k. c #E6D34A",
"l. c #E8D44E",
"z. c #E6CD51",
"x. c #E6CC5B",
"c. c #EAD959",
"v. c #E8D35A",
"b. c #D1C364",
"n. c #D2C66B",
"m. c #D8C867",
"M. c #DACE73",
"N. c #D1C67E",
"B. c #D7CD7F",
"V. c #EDDC63",
"C. c #EFDE6A",
"Z. c #E7D86D",
"A. c #EED971",
"S. c #F1E16F",
"D. c #EDE07B",
"F. c #F2E373",
"G. c #F3E57B",
"H. c #F4E87F",
"J. c #EFE06D",
"K. c #757785",
"L. c #797C88",
"P. c #807F89",
"I. c #7E818E",
"U. c #888585",
"Y. c #939188",
"T. c #828591",
"R. c #878A97",
"E. c #8A8C96",
"W. c #898791",
"Q. c #928F90",
"!. c #949AA4",
"~. c #999EA8",
"^. c #9095A0",
"/. c #9DA2AC",
"(. c #9FA7B0",
"). c #A3A4AC",
"_. c #A2A7B0",
"`. c #A6ABB3",
"'. c #ACB2BA",
"]. c #D1CB9A",
"[. c #D9D29C",
"{. c #D4C980",
"}. c #E4DC97",
"|. c #F6EA85",
" X c #F7EC8A",
".X c #F0E380",
"XX c #F8EF9A",
"oX c #F8EE94",
"OX c #C8C4A5",
"+X c #F7EFA9",
"@X c #F9F1A6",
"#X c #F9F3B6",
"$X c #B6BFC7",
"%X c #BABEC4",
"&X c #BDC4CB",
"*X c #C5CDD3",
"=X c #CACFD4",
"-X c #D0D5D9",
";X c #FBF5C6",
":X c #FCF7D3",
">X c #FDFAE2",
",X c None",
/* pixels */
",X,X,X,X,X,X,X,X,X,X,X,X,X,X,X,X,X,X,X,X,X,X,X,X,X,X,X,X,X,X,X,X,X,X,X,X,X,X,X,X,X,X,X,X,X,X,X,X,X,X,X,X,X,X,X,X,X,X,X,X,X,X,X,X",
",X,X,X,X,X,X,X,X,X,X,X,X,X,X,X,X,X,X,X,X,X,X,X,X,X,X,X,X,X,X,X,X,X,X,X,X,X,X,X,X,X,X,X,X,X,X,X,X,X,X,X,X,X,X,X,X,X,X,X,X,X,X,X,X",
",X,X,X,X,X,X,X,X,X,X,X,X,X,X,X,X,X,X,X,X,X,X,X,X,X,X,X,X,X,X,X,X,X,X,X,X,X,X,X,X,X,X,X,X,X,X,X,X,X,X,X,X,X,X,X,X,X,X,X,X,X,X,X,X",
",X,X,X,X,X,X,X,X,X,X,X,X,X,X,X,X,X,X,X,X,X,X,X,X,X,X,X,X,X,X,X,X,X,X,X,X,X,X,X,X,X,X,X,X,X,X,X,X,X,X,X,X,X,X,X,X,X,X,X,X,X,X,X,X",
",X,X,X,X,X,X,X,X,X,X,X,X,X,X,X,X,X,X,X,X,X,X,X,X,X,X,X,X,X,X,X,X,X,X,X,X,X,X,X,X,X,X,X,X,X,X,X,X,X,X,X,X,X,X,X,X,X,X,X,X,X,X,X,X",
",X,X,X,X,X,X,X,X,X,X,X,X,X,X,X,X,X,X,X,X,X,X,X,X,X,X,X,X,X,X,X,X,X,X,X,X,X,X,X,X,X,X,X,X,X,X,X,X,X,X,X,X,X,X,X,X,X,X,X,X,X,X,X,X",
",X,X,X,X,X,X,X,X,X,X,X,X,X,X,X,X,X,X,X,X,X,X,X,X,X,X,X,X,X,X,X,X,X,X,X,X,X,X,X,X,X,X,X,X,X,X,X,X,X,X,X,X,X,X,X,X,X,X,X,X,X,X,X,X",
",X,X,X,X,X,X,X,X,X,X,X,X,X,X,X,X,X,X,X,X,X,X,X,X,X,X,X,X,X,X,X,X,X,X,X,X,X,X,X,X,X,X,X,X,X,X,X,X,X,X,X,X,X,X,X,X,X,X,X,X,X,X,X,X",
",X,X,X,X,X,X,X,X,X,X,X,X,X,X,X,X,X,X,X,X,X,X,X,X,X,X,X,X,X,X,X,X,X,X,X,X,X,X,X,X,X,X,X,X,X,X,X,X,X,X,X,X,X,X,X,X,X,X,X,X,X,X,X,X",
",X,X,X,X,X,X,X,X,X,X,X,X,X,X,X,X,X,X,X,X,X,X,X,X,X,X,X,X,X,X,X,X,X,X,X,X,X,X,X,X,X,X,X,X,X,X,X,X,X,X,X,X,X,X,X,X,X,X,X,X,X,X,X,X",
",X,X,X,X,X,X,X,X,X,X,X,X,X,X,X,X,X,X,X,X,X,X,X,X,X,X,X,X,X,X,X,X,X,X,X,X,X,X,X,X,X,X,X,X,X,X,X,X,X,X,X,X,X,X,X,X,X,X,X,X,X,X,X,X",
",X,X,X,X,X,X,X,X,X,X,X,X,X,X,X,X,X,X,X,X,X,X,X,X,X,X,X,X,X,X,X,X,X,X,X,X,X,X,X,X,X,X,X,X,X,X,X,X,X,X,X,X,X,X,X,X,X,X,X,X,X,X,X,X",
",X,X,X,X,X,X,X,X,X,X,X,X,X,X,X,X,X,X,X,X,X,X,X,X,X,X,X,X,X,X,X,X,X,X,X,X,X,X,X,X,X,X,X,X,X,X,X,X,X,X,X,X,X,X,X,X,X,X,X,X,X,X,X,X",
",X,X,X,X,X,X,X,X,X,X,X,X,X,X,X,X,X,X,X,X,X,X,X,X,X,X,X,X,X,X,X,X,X,X,X,X,X,X,X,X,X,X,X,X,X,X,X,X,X,X,X,X,X,X,X,X,X,X,X,X,X,X,X,X",
",X,X,X,X,X,X,X,X,X,X,X,X,X,X,X,X,X,X,X,X,X,X,X,X,X,X,X,X,X,X,X,X,X,X,X,X,X,X,X,X,X,X,X,X,X,X,X,X,X,X,X,X,X,X,X,X,X,X,X,X,X,X,X,X",
",X,X,X,X,X,X,X,X,X,X,X,X,X,X,X,X,X,X,X,X,X,X,X,X,X,X,X,X,X,X,X,X,X,X,X,X,X,X,X,X,X,X,X,X,X,X,X,X,X,X,X,X,X,X,X,X,X,X,X,X,X,X,X,X",
",X,X,X,X,X,X,X,X,X,X,X,X,X,X,X,X,X,X,X,X,X,X,X,X,X,X,X,X,X,X,X,X,X,X,X,X,X,X,X,X,X,X,X,X,X,X,X,X,X,X,X,X,X,X,X,X,X,X,X,X,X,X,X,X",
",X,X,X,X,X,X,X,X,X,X,X,X,X,X,X,X,X,X,X,X,X,X,X,X,X,X,X,X,X,X,X,X,X,X,X,X,X,X,X,X,X,X,X,X,X,X,X,X,X,X,X,X,X,X,X,X,X,X,X,X,X,X,X,X",
",X,X,X,X,X,X,X,X,X,X,X,X,X,X,X,X,X,X,X,X,X,X,X,X,X,X,X,X,X,X,X,X,X,X,X,X,X,X,X,X,X,X,X,X,X,X,X,X,X,X,X,X,X,X,X,X,X,X,X,X,X,X,X,X",
",X,X,X,X,X,X,X,X,X,X,X,X,X,X,X,X,X,X,X,X,X,X,X,X,X,X,X,X,X,X,X,X,X,X,X,X,X,X,X,X,X,X,X,X,X,X,X,X,X,X,X,X,X,X,X,X,X,X,X,X,X,X,X,X",
",X,X,X,X,X,X,X,X,X,X,X,X,X,X,X,X,X= r Z +.+.+.+.;.+.+.+.+.+.+.+.#.:.+.+.<.S 4.1.1.1.1.Y.Q.T.j ,X,X,X,X,X,X,X,X,X,X,X,X,X,X,X,X,X",
",X,X,X,X,X,X,X,X,X,X,X,X,X,X,X,XX = > Z ..o.X.X.X.X.X.X.X.X.X.X.X.X.X.X.Z A 5.,.5.,.:.4.U.2.j d ,X,X,X,X,X,X,X,X,X,X,X,X,X,X,X,X",
",X,X,X,X,X,X,X,X,X,X,Xj ;.A m % X o > N Z C I J J J J J J J J J J J R J R Q 8.8.8.8.%.#.:.S y 9 t A >.2.j ,X,X,X,X,X,X,X,X,X,X,X",
",X,X,X,X,X,X,X,X,X,XY.3.:.o.m % X o v H J E E ( ( ( ( ( ( ( ( ( ( ( ( ( ( ' ' q.q.q.9.&.5.@.i * r Z :.3.Y.Y.,X,X,X,X,X,X,X,X,X,X",
",X,X,X,X,X,X,X,X,Xf OX].7.%.M % X # C R ) { g.g.g.g.g.g.h.g.g.g.x.g.g.g.g.g.x.g.z.x.f.f.a.*.> * > F %.7.].OXf ,X,X,X,X,X,X,X,X,X",
",X,X,X,X,X,X,X,X,Xf [.}.7.F M % X $ K )  .k.c.V.C.C.C.C.J.J.C.C.C.A.C.S.F.D.D.D.D.D..XD.V.y., = : G o.7.}.[.f ,X,X,X,X,X,X,X,X,X",
",X,X,X,X,X,X,X,X,Xu {.{.+.* ,X,X$ x L _ h.c.V.F.G.H..X|.H.H.H.H.G..XH. X@X+X+X#X;X;X#X@X Xn.o.: ,X,X* ..m.n.w ,X,X,X,X,X,X,X,X,X",
",X,X,X,X,X,X,X,X,Xw n.n.w ,X,X,X$ c R ] z.V.F.G.|. X X X X X X X X X XoX+X#X#X#X:X>X>X:X@XM.O., ,X,X,Xw b.b.w ,X,X,X,X,X,X,X,X,X",
",X,X,X,X,X,X,X,X,Xw s.d.w ,X,X,X$ c R ] k.V.S.G.|. X X X X X X X X X X XoXXXXX+X:X>X>X:X@XM.O.M ,X,X,Xu N.N.u ,X,X,X,X,X,X,X,X,X",
",X,X,X,X,X,X,X,X,Xq s.s.q ,X,X,X$ c R ] l.V.F.H.|. X X X X X X X X X X X X X XXX#X;X:X;XXXM.O.M ,X,X,Xu N.N.u ,X,X,X,X,X,X,X,X,X",
",X,X,X,X,X,X,X,X,Xq s.s.q ,X,X,X$ c R ] z.C.G.|.|. X X X X X X X X X X X X X XoXXX@X#X@XoXM.O.M ,X,X,Xw b.b.w ,X,X,X,X,X,X,X,X,X",
",X,X,X,X,X,X,X,X,Xq s.s.q ,X,X,X$ c R ] l.C.H. X X X X X X X X X X X X X X X X X XoXXXoXoXM.O.M ,X,X,Xq s.s.q ,X,X,X,X,X,X,X,X,X",
",X,X,X,X,X,X,X,X,Xq s.d.q ,X,X,X$ c R ] k.J.H. X X X X X X X X X X X X X X X X X X XoX X XM.O., ,X,X,Xr s.s.q ,X,X,X,X,X,X,X,X,X",
",X,X,X,X,X,X,X,X,Xq s.d.r ,X,X,X$ c R ] k.V.G.|.|.|.|.|.|. X X X X X X X X X X X|. X X X|.M.O., ,X,X,Xr s.s.w ,X,X,X,X,X,X,X,X,X",
",X,X,X,X,X,X,X,X,Xw n.b.Z O ,X. $ c R _ h.c.S.H.G.G.G.H.|. X X X X X X X X X X|.H.G.|.|.H.m.F : O ,XO ..b.b.t ,X,X,X,X,X,X,X,X,X",
",X,X,X,X,X,X,X,X,Xw p.d.%.B : # $ c R _  .k.c.J.S.S.F.F.|.|. X X X X X X X X X|.H.G.H.F.C.s.P B > > F %.b.p.t ,X,X,X,X,X,X,X,X,X",
",X,X,X,X,X,X,X,X,X,X=.t.t.w.` H v v D ) |  .k.c.c.J.S.F.G.H.|. X X X X X X X X X XH.S.V.k.} F F *.a.s.s.w.*.,X,X,X,X,X,X,X,X,X,X",
",X,X,X,X,X,X,X,X,X,X%.*.y.w.! H x x D W _  . .j.l.c.V.V.V.V.F.F.F.F.F.F.F.F.F.F.F.S.c.k.| T G G T w.s.t.*.O.,X,X,X,X,X,X,X,X,X,X",
",X,X,X,X,X,X,X,X,X,X,X,Xq > * @ . @ l D W ) ] |  .j.j. .h.j.k.k.k.k.k.k.k.k.k.k.k. .| | I H - O * > q q ,X,X,X,X,X,X,X,X,X,X,X,X",
",X,X,X,X,X,X,X,X,X,X,X,X,X,X,X,X,X,Xx z D L L / ^ ~ ^ ^ ~ ^ _ _ ^ ^ ^ ~ ^ ~ ^ ^ ~ T T L H v ,X,X,X,X,X,X,X,X,X,X,X,X,X,X,X,X,X,X",
",X,X,X,X,X,X,X,X,X,X,X,X,X,X,X,X,X,X,X$ x v c c b b b b b n C C C C n b b b b b b b v ; % ,X,X,X,X,X,X,X,X,X,X,X,X,X,X,X,X,X,X,X",
",X,X,X,X,X,X,X,X,X,X,X,X,X,X,X,X,X,X,X,X,X@ $ $ $ $ $ $ # v C C K C v # $ & $ $ $ $ @ ,X,X,X,X,X,X,X,X,X,X,X,X,X,X,X,X,X,X,X,X,X",
",X,X,X,X,X,X,X,X,X,X,X,X,X,X,X,X,X,X,X,X,X,X,X,X,X,X,X,Xo > *.e.u.=.e = ,X,X,X,X,X,X,X,X,X,X,X,X,X,X,X,X,X,X,X,X,X,X,X,X,X,X,X,X",
",X,X,X,X,X,X,X,X,X,X,X,X,X,X,X,X,X,X,X,X,X,X,X,X,X,X,X,X+ B r.x.x.r.A y ,X,X,X,X,X,X,X,X,X,X,X,X,X,X,X,X,X,X,X,X,X,X,X,X,X,X,X,X",
",X,X,X,X,X,X,X,X,X,X,X,X,X,X,X,X,X,X,X,X,X,X,X,X,X,X,X= > o.8.u.u.r.>.f j ,X,X,X,X,X,X,X,X,X,X,X,X,X,X,X,X,X,X,X,X,X,X,X,X,X,X,X",
",X,X,X,X,X,X,X,X,X,X,X,X,X,X,X,X,X,X,X,X,X,X,X,X,X,X@ - F %.i.u.u.i.7.3.S f ,X,X,X,X,X,X,X,X,X,X,X,X,X,X,X,X,X,X,X,X,X,X,X,X,X,X",
",X,X,X,X,X,X,X,X,X,X,X,X,X,X,X,X,X,X,X,X,X,X,X,X,X,X$ v *.a.x.x.x.x.m.p.#.t ,X,X,X,X,X,X,X,X,X,X,X,X,X,X,X,X,X,X,X,X,X,X,X,X,X,X",
",X,X,X,X,X,X,X,X,X,X,X,X,X,X,X,X,X,X,X,X,X,X,X,X,X,X# M Y w.a.z.z.f.t.=.o.r ,X,X,X,X,X,X,X,X,X,X,X,X,X,X,X,X,X,X,X,X,X,X,X,X,X,X",
",X,X,X,X,X,X,X,X,X,X,X,X,X,X,X,X,X,X,X,X,X,X,X,X,X,X,X= > N U ( { ` F q < ,X,X,X,X,X,X,X,X,X,X,X,X,X,X,X,X,X,X,X,X,X,X,X,X,X,X,X",
",X,X,X,X,X,X,X,X,X,X,X,X,X,X,X,X,X,X,X,X,X,X,X,X,X,X,X,X* , U { q.` Z * ,X,X,X,X,X,X,X,X,X,X,X,X,X,X,X,X,X,X,X,X,X,X,X,X,X,X,X,X",
",X,X,X,X,X,X,X,X,X,X,X,X,X,X,X,X,X,X,X,X,X,X,X,X,X,X,X,XG Y e.A.A.M.=.$.,X,X,X,X,X,X,X,X,X,X,X,X,X,X,X,X,X,X,X,X,X,X,X,X,X,X,X,X",
",X,X,X,X,X,X,X,X,X,X,X,X,X,X,X,X,X,X,X,X,X,X,X,X,X,X,Xo.*.t.A.|. XD.n.-.$.,X,X,X,X,X,X,X,X,X,X,X,X,X,X,X,X,X,X,X,X,X,X,X,X,X,X,X",
",X,X,X,X,X,X,X,X,X,X,X,X,X,X,X,X,X,X,X,X,Xi Z Z +.#.5.y.a.v.V.F.|.G.Z.d.-.5.3.1.1.2.j ,X,X,X,X,X,X,X,X,X,X,X,X,X,X,X,X,X,X,X,X,X",
",X,X,X,X,X,X,X,X,X,X,X,X,X,X,X,X,X,X,X,Xv V N O.X.&.=.y.f.z.z.v.V.C.v.f.y.=.5.5.5.<.>.A ,X,X,X,X,X,X,X,X,X,X,X,X,X,X,X,X,X,X,X,X",
",X,X,X,X,X,X,X,X,X,X,X,X,X,X,X,X,X,X,X@ H R E E ` ` ^ ' { ] ] ] [ [ ] ] { ' ` ` Q Q ! I = ,X,X,X,X,X,X,X,X,X,X,X,X,X,X,X,X,X,X,X",
",X,X,X,X,X,X,X,X,X,X,X,X,X,X,X,X,X,X2 9 C Q Q Q I I I I T 9.9.Q I I I U 8.9.9.Q I Y Y C e p ,X,X,X,X,X,X,X,X,X,X,X,X,X,X,X,X,X,X",
",X,X,X,X,X,X,X,X,X,X,X,X,X,X,X,X4 3 3 p S Y.6.>.u 9 9 u >.6.6.>.u 9 9 u >.6.6.>.u 9 9 y j T.W.P.,X,X,X,X,X,X,X,X,X,X,X,X,X,X,X,X",
",X,X,X,X,X,X,X,X,X,X,X,X,X,X,X  4 3 5 a Q.).).E.a 6 5 a E.).).R.a 5 6 a E.).).E.a 6 5 d E.).).^.s ,X,X,X,X,X,X,X,X,X,X,X,X,X,X,X",
",X,X,X,X,X,X,X,X,X,X,X,X,X,X,X  2 3 5 g `.*X*X`.g 6 6 g `.*X*X`.g 6 6 g `.*X*X`.g 6 6 g `.=X-X%Xk ,X,X,X,X,X,X,X,X,X,X,X,X,X,X,X",
",X,X,X,X,X,X,X,X,X,X,X,X,X,X,X2 5 6 s K.'.=X*X'.K.a a K.'.*X*X'.K.a a K.'.*X=X'.K.a s K.'.=X-X*Xg ,X,X,X,X,X,X,X,X,X,X,X,X,X,X,X",
",X,X,X,X,X,X,X,X,X,X,X,X,X,X,X3 d K.K.R.~._._.~.E.L.T.R.~._._.~.R.T.I.R.~._._.~.R.I.I.R.~.`.'./.a ,X,X,X,X,X,X,X,X,X,X,X,X,X,X,X",
",X,X,X,X,X,X,X,X,X,X,X,X,X,X,X7 L.^.~.^.T.L.L.T.!.)./.!.T.L.L.T.!././.!.T.K.L.T.!././.!.T.I.R.L.7 ,X,X,X,X,X,X,X,X,X,X,X,X,X,X,X",
",X,X,X,X,X,X,X,X,X,X,X,X,X,X,Xs ~.$X$X/.g 7 7 g (.$X$X/.g 7 7 g ~.$X$X/.g 7 7 g /.&X&X/.g p a p 4 ,X,X,X,X,X,X,X,X,X,X,X,X,X,X,X",
",X,X,X,X,X,X,X,X,X,X,X,X,X,X,Xd `.&X&X(.a 2 2 s (.*X*X_.a 2 2 a _.*X*X).a 2 2 a (.*X&X).a 4 5 5   ,X,X,X,X,X,X,X,X,X,X,X,X,X,X,X"
};
