/* XPM */
static char *result[] = {
/* columns rows colors chars-per-pixel */
"64 64 51 1 ",
"  c #5C4D93",
". c #5C4E93",
"X c #5D4D94",
"o c #635599",
"O c #685B9E",
"+ c #7F749E",
"@ c #7065A6",
"# c #7267A7",
"$ c #7569A4",
"% c #7A6CA5",
"& c #7D6FA6",
"* c #756BAA",
"= c #776DAC",
"- c #7A6FA9",
"; c #7D72A0",
": c #7F74A2",
"> c #7E71A4",
", c #82769F",
"< c #8074A0",
"1 c #877CA3",
"2 c #8D84AE",
"3 c #9188AD",
"4 c #9E95A7",
"5 c #9A90AD",
"6 c #968EB1",
"7 c #B3ACAE",
"8 c #B6B0AF",
"9 c #ADA7B5",
"0 c #B8B2B3",
"q c #CDC9B6",
"w c #CFCBB7",
"e c #C9C3BB",
"r c #D2CFBA",
"t c #D7D3B8",
"y c #D5D1BA",
"u c #D4D1BC",
"i c #DCD9BD",
"p c #EAE8BE",
"a c #AA9FC1",
"s c #BEB4CC",
"d c #C1B9C6",
"f c #CBC3C9",
"g c #E3DDD8",
"h c #E6E2C4",
"j c #EBEAC0",
"k c #EFEDC7",
"l c #EEEBC8",
"z c #F3F2C1",
"x c #F2F0C3",
"c c #E7E2D2",
"v c None",
/* pixels */
"vvvvvvvvvvvvvvvvvvvvvvvvvvvvvvvvvvvvvvvvvvvvvvvvvvvvvvvvvvvvvvvv",
"vvvvvvvvvvvvvvvvvvvvvvvvvvvvvvvvvvvvvvvvvvvvvvvvvvvvvvvvvvvvvvvv",
"vvvvvvvvvvvvvvvvvvvvvvvvvvvvvvvvvvvvvvvvvvvvvvvvvvvvvvvvvvvvvvvv",
"vvvvvvvvvvvvvvvvvvvvvvvvvvvvvvvvvvvvvvvvvvvvvvvvvvvvvvvvvvvvvvvv",
"vvvvvvvvvvvvvvvvvvvvvvvvvvvvvvvvvvvvvvvvvvvvvvvvvvvvvvvvvvvvvvvv",
"vvvvvvvvvvvvvvvvvvvvvvvvvvvvvvvvvvvvvvvvvvvvvvvvvvvvvvvvvvvvvvvv",
"vvvvvvvvvvvvvvvvvvvvvvvvvvvvvvvvvvvvvvvvvvvvvvvvvvvvvvvvvvvvvvvv",
"vvvvvvvvvvvvvvvvvvvvvvvvvvvvvvvvvvvvvvvvvvvvvvvvvvvvvvvvvvvvvvvv",
"vvvvvvvvvvvvvvvvvvvvvvvvvvvvvvvvvvvvvvvvvvvvvvvvvvvvvvvvvvvvvvvv",
"vvvvvvvvvvvvvvvvvvvvvvvvvvvvvvvvvvvvvvvvvvvvvvvvvvvvvvvvvvvvvvvv",
"vvvvvvvvvvvvvvvvvvvvvvvvvvvvvvvvvvvvvvvvvvvvvvvvvvvvvvvvvvvvvvvv",
"vvvvvvvvvvvvvvvvvvvvvvvvvvvvvvvvvvvvvvvvvvvvvvvvvvvvvvvvvvvvvvvv",
"vvvvvvvvvvvvvvvvvvvvvvvvvvvvvvvvvvvvvvvvvvvvvvvvvvvvvvvvvvvvvvvv",
"vvvvvvvvvvvvvvvvvvvvvvvvvvvvvvvvvvvvvvvvvvvvvvvvvvvvvvvvvvvvvvvv",
"vvvvvvvvvvvvvvvvvvvvvvvvvvvvvvvvvvvvvvvvvvvvvvvvvvvvvvvvvvvvvvvv",
"vvvvvvvvvvvvvvvvvvvvvvvvvvvvvvvvvvvvvvvvvvvvvvvvvvvvvvvvvvvvvvvv",
"vvvvvvvvvvvvvvvvvvvvvvX    XvvvvvvvvX    Xvvvvvvvvvvvvvvvvvvvvvv",
"vvvvvvvvvvvvvvvvvvvvvv+,,,,+vvvvvvvv+,,,,+vvvvvvvvvvvvvvvvvvvvvv",
"vvvvvvvvvvvvvvvvvvvvX+8qqqq8+XvvvvX+8qqqq8+Xvvvvvvvvvvvvvvvvvvvv",
"vvvvvvvvvvvvvvvvvvvv ,qzzzzq,.vvvv.,qzzzzq, vvvvvvvvvvvvvvvvvvvv",
"vvvvvvvvvvvvvvvvvvvv ,qzzzzq, .  . ,qzzzzq, vvvvvvvvvvvvvvvvvvvv",
"vvvvvvvvvvvvvvvvvvvv ,qzzzzy5&&&&&&5yzzzzq, vvvvvvvvvvvvvvvvvvvv",
"vvvvvvvvvvvvvvvvvvvv ,qzzzzhfssssssfhzzzzq, vvvvvvvvvvvvvvvvvvvv",
"vvvvvvvvvvvvvvvvvvvv ,qzzzzkcggggggckzzzzq, vvvvvvvvvvvvvvvvvvvv",
"vvvvvvvvvvvvvvvvvvvv ,qzzzzxkllllllkxzzzzq, vvvvvvvvvvvvvvvvvvvv",
"vvvvvvvvvvvvvvvvvvvv ,qzzzzzzzzzzzzzzzzzzq, vvvvvvvvvvvvvvvvvvvv",
"vvvvvvvvvvvvvvvvvvvv ,qzzzzzzzzzzzzzzzzzzq, vvvvvvvvvvvvvvvvvvvv",
"vvvvvvvvvvvvvvvvvvvv.,qzzzzzzzzzzzzzzzzzzq,.vvvvvvvvvvvvvvvvvvvv",
"vvvvvvvvvvvvvvvvvvX. ,qzzzzzzzzzzzzzzzzzzq, .Xvvvvvvvvvvvvvvvvvv",
"vvvvvvvvvvvvvvvvvvX. ,qzzzzzzzzzzzzzzzzzzq, .Xvvvvvvvvvvvvvvvvvv",
"vvvvvvvvvvvvvvvvvvvv.,qzzzzzzzzzzzzzzzzzzq,.vvvvvvvvvvvvvvvvvvvv",
"vvvvvvvvvvvvvvvvvvvv.,qzzzzzzzzzzzzzzzzzzq,.vvvvvvvvvvvvvvvvvvvv",
"vvvvvvvvvvvvvvvvvvX. ,qzzzzzzzzzzzzzzzzzzq, .Xvvvvvvvvvvvvvvvvvv",
"vvvvvvvvvvvvvvvvvvX. ,qzzzzzzzzzzzzzzzzzzq, .Xvvvvvvvvvvvvvvvvvv",
"vvvvvvvvvvvvvvvvvvvv.,qzzzzzzzzzzzzzzzzzzq,.vvvvvvvvvvvvvvvvvvvv",
"vvvvvvvvvvvvvvvvvvvvX+8qqwruuuuuuuuuurwqq8+Xvvvvvvvvvvvvvvvvvvvv",
"vvvvvvvvvvvvvvvvvvvvvv+,,13666666666631,,+vvvvvvvvvvvvvvvvvvvvvv",
"vvvvvvvvvvvvvvvvvvvvvv%><:-==*#@@#*==-:<>%vvvvvvvvvvvvvvvvvvvvvv",
"vvvvvvvvvvvvvvvvvvvvX%ade02==#OooO#==20eda%Xvvvvvvvvvvvvvvvvvvvv",
"vvvvvvvvvvvvvvvvvvvv &sgli92-$;,,;$-29ilgs& vvvvvvvvvvvvvvvvvvvv",
"vvvvvvvvvvvvvvvvvvvv &sglji0:;7qq7;:0ijlgs& vvvvvvvvvvvvvvvvvvvv",
"vvvvvvvvvvvvvvvvvvvvX%adetpt44tzzt44tpteda%Xvvvvvvvvvvvvvvvvvvvv",
"vvvvvvvvvvvvvvvvvvvvvv%><4tpttpzzpttpt4<>%vvvvvvvvvvvvvvvvvvvvvv",
"vvvvvvvvvvvvvvvvvvvvvvX. <ellhyqqyhlle< .Xvvvvvvvvvvvvvvvvvvvvvv",
"vvvvvvvvvvvvvvvvvvvvvvvv.>dggf5,,5fggd>.vvvvvvvvvvvvvvvvvvvvvvvv",
"vvvvvvvvvvvvvvvvvvvvvvvvX%assa%  %assa%Xvvvvvvvvvvvvvvvvvvvvvvvv",
"vvvvvvvvvvvvvvvvvvvvvvvvvv%&&%vvvv%&&%vvvvvvvvvvvvvvvvvvvvvvvvvv",
"vvvvvvvvvvvvvvvvvvvvvvvvvvX  XvvvvX  Xvvvvvvvvvvvvvvvvvvvvvvvvvv",
"vvvvvvvvvvvvvvvvvvvvvvvvvvvvvvvvvvvvvvvvvvvvvvvvvvvvvvvvvvvvvvvv",
"vvvvvvvvvvvvvvvvvvvvvvvvvvvvvvvvvvvvvvvvvvvvvvvvvvvvvvvvvvvvvvvv",
"vvvvvvvvvvvvvvvvvvvvvvvvvvvvvvvvvvvvvvvvvvvvvvvvvvvvvvvvvvvvvvvv",
"vvvvvvvvvvvvvvvvvvvvvvvvvvvvvvvvvvvvvvvvvvvvvvvvvvvvvvvvvvvvvvvv",
"vvvvvvvvvvvvvvvvvvvvvvvvvvvvvvvvvvvvvvvvvvvvvvvvvvvvvvvvvvvvvvvv",
"vvvvvvvvvvvvvvvvvvvvvvvvvvvvvvvvvvvvvvvvvvvvvvvvvvvvvvvvvvvvvvvv",
"vvvvvvvvvvvvvvvvvvvvvvvvvvvvvvvvvvvvvvvvvvvvvvvvvvvvvvvvvvvvvvvv",
"vvvvvvvvvvvvvvvvvvvvvvvvvvvvvvvvvvvvvvvvvvvvvvvvvvvvvvvvvvvvvvvv",
"vvvvvvvvvvvvvvvvvvvvvvvvvvvvvvvvvvvvvvvvvvvvvvvvvvvvvvvvvvvvvvvv",
"vvvvvvvvvvvvvvvvvvvvvvvvvvvvvvvvvvvvvvvvvvvvvvvvvvvvvvvvvvvvvvvv",
"vvvvvvvvvvvvvvvvvvvvvvvvvvvvvvvvvvvvvvvvvvvvvvvvvvvvvvvvvvvvvvvv",
"vvvvvvvvvvvvvvvvvvvvvvvvvvvvvvvvvvvvvvvvvvvvvvvvvvvvvvvvvvvvvvvv",
"vvvvvvvvvvvvvvvvvvvvvvvvvvvvvvvvvvvvvvvvvvvvvvvvvvvvvvvvvvvvvvvv",
"vvvvvvvvvvvvvvvvvvvvvvvvvvvvvvvvvvvvvvvvvvvvvvvvvvvvvvvvvvvvvvvv",
"vvvvvvvvvvvvvvvvvvvvvvvvvvvvvvvvvvvvvvvvvvvvvvvvvvvvvvvvvvvvvvvv",
"vvvvvvvvvvvvvvvvvvvvvvvvvvvvvvvvvvvvvvvvvvvvvvvvvvvvvvvvvvvvvvvv"
};
