/* XPM */
static char *result[] = {
/* columns rows colors chars-per-pixel */
"64 64 94 2 ",
"   c #EBE37E",
".  c #5C4D93",
"X  c #5C4E93",
"o  c #5D4D94",
"O  c #7F679A",
"+  c #7F6E9F",
"@  c #7F749E",
"#  c #7A6CA5",
"$  c #7D6FA6",
"%  c #776DAC",
"&  c #7A6FA9",
"*  c #7F74A2",
"=  c #7E71A4",
"-  c #7E74A9",
";  c #7F75AD",
":  c #806B9B",
">  c #81739D",
",  c #82729F",
"<  c #82759F",
"1  c #82769F",
"2  c #8270A0",
"3  c #8074A0",
"4  c #8778A4",
"5  c #B8AF8F",
"6  c #8D83A2",
"7  c #8D84AE",
"8  c #958BA4",
"9  c #9187AD",
"0  c #968DAD",
"q  c #9E95A7",
"w  c #9A90AD",
"e  c #8E86B0",
"r  c #968EB1",
"t  c #ABA3A3",
"y  c #B6B0AF",
"u  c #ADA6B1",
"i  c #ADA7B5",
"p  c #B6A1B1",
"a  c #B8B2B3",
"s  c #BDB8B8",
"d  c #C69DA7",
"f  c #C8A8AB",
"g  c #CBBEB2",
"h  c #CDB6B9",
"j  c #CDBBB8",
"k  c #CFBDBA",
"l  c #E9B7AE",
"z  c #D6CD87",
"x  c #D0C893",
"c  c #E5DE8A",
"v  c #ECE586",
"b  c #EDE68B",
"n  c #E7E197",
"m  c #EEE999",
"M  c #D3CEAE",
"N  c #DAD5AB",
"B  c #CDC4B6",
"V  c #CDC9B6",
"C  c #C9C3BB",
"Z  c #D2CABB",
"A  c #DAD6B0",
"S  c #D7D3B8",
"D  c #D5D1BA",
"F  c #D4D1BC",
"G  c #DCD9BD",
"H  c #EBC6B3",
"J  c #EDD1B6",
"K  c #F0EBA1",
"L  c #F1EEAF",
"P  c #EAE8BE",
"I  c #F2EFB4",
"U  c #F1E3BC",
"Y  c #F1E7BD",
"T  c #F3F1BD",
"R  c #AA9FC1",
"E  c #BEB4CC",
"W  c #C1B9C6",
"Q  c #CBC3C9",
"!  c #DED6DF",
"~  c #F3DFC5",
"^  c #E3DDD8",
"/  c #E6E2C4",
"(  c #EBEAC0",
")  c #EFEDC7",
"_  c #EEEBC8",
"`  c #F3E4C4",
"'  c #F2EEC0",
"]  c #F3ECC2",
"[  c #F3EDC2",
"{  c #F3F0C1",
"}  c #F3F2C1",
"|  c #F2F0C3",
" . c #E7E2D2",
".. c None",
/* pixels */
"................................................................................................................................",
"................................................................................................................................",
"................................................................................................................................",
"................................................................................................................................",
"................................................................................................................................",
"................................................................................................................................",
"................................................................................................................................",
"................................................................................................................................",
"................................................................................................................................",
"................................................................................................................................",
"................................................................................................................................",
"................................................................................................................................",
"................................................................................................................................",
"................................................................................................................................",
"................................................................................................................................",
"................................................................................................................................",
"............................................o . . . . o ................o . . . . o ............................................",
"............................................@ 1 1 1 1 @ ................@ 1 1 1 1 @ ............................................",
"........................................o @ y V V V V y @ o ........o @ y V V V V y @ o ........................................",
"......................................... > g U U Y ' V 1 X ........X 1 V ' Y U U g > . ........................................",
"......................................... : f H H J Y V 1 . X . . X . 1 V Y J H H f : . ........................................",
"......................................... O d l l H U D w $ $ $ $ $ $ w D U H l l d O . ........................................",
"......................................... O d l l H U / Q E E E E E E Q / U H l l d O . ........................................",
"......................................... : f H H J Y _ ^ ! ! ! ! ! ! ^ _ Y J H H f : . ........................................",
"......................................... > g U U Y ' _ ^ ! ! ! ! ! ! ^ _ ' Y U U g > . ........................................",
"......................................... 1 V } } } } _ ^ ! ! ! ! ! ! ^ _ } } } } V 1 . ........................................",
"......................................... 1 V } } } } _ ^ ! ! ! ! ! ! ^ _ } } } } V 1 . ........................................",
"........................................X 1 V } } } } )  .^ ^ ^ ^ ^ ^  .) } } } } V 1 X ........................................",
"....................................o X . 1 V } } } } | ) _ _ _ _ _ _ ) | } } } } V 1 . X o ....................................",
"....................................o X . 1 V P S S P } } } } } } } } } } P S S P V 1 . X o ....................................",
"........................................X 1 V S q q S } } } } } } } } } } S q q S V 1 X ........................................",
"........................................X 1 V S q q S } } } } } } } } } } S q q S V 1 X ........................................",
"....................................o X . 1 V P S S P } } } } } } } } } } P S S P V 1 . X o ....................................",
"....................................o X . < B ] ] [ { } } } } } } } } } } { [ ] ] B < . X o ....................................",
"........................................X , j ~ ~ ` [ } } } } } } } } } } [ ` ~ ~ j , X ........................................",
"........................................o + p h h k Z F F F F F F F F F F Z k h h p + o ........................................",
"............................................+ 2 2 4 9 r r r r r r r r r r 9 4 2 2 + ............................................",
"............................................# = 3 * & % % - 6 8 0 e ; % % & * 3 = # ............................................",
"........................................o # R W C a 7 % % 6 5 x M s e % % 7 a C W R # o ........................................",
"......................................... $ E ^ _ G i r r t z v K A u r r i G _ ^ E $ . ........................................",
"......................................... $ E ^ _ ( G F F N c   v n A F F G ( _ ^ E $ . ........................................",
"........................................o # R W C S P } } I m b b m I } } P S C W R # o ........................................",
"............................................# = 3 q S } } T I L L I T } } S q 3 = # ............................................",
"............................................o X . 3 C _ _ / D V V D / _ _ C 3 . X o ............................................",
"................................................X = W ^ ^ Q w 1 1 w Q ^ ^ W = X ................................................",
"................................................o # R E E R # . . # R E E R # o ................................................",
"....................................................# $ $ # ........# $ $ # ....................................................",
"....................................................o . . o ........o . . o ....................................................",
"................................................................................................................................",
"................................................................................................................................",
"................................................................................................................................",
"................................................................................................................................",
"................................................................................................................................",
"................................................................................................................................",
"................................................................................................................................",
"................................................................................................................................",
"................................................................................................................................",
"................................................................................................................................",
"................................................................................................................................",
"................................................................................................................................",
"................................................................................................................................",
"................................................................................................................................",
"................................................................................................................................",
"................................................................................................................................"
};
