/* XPM */
static char *result[] = {
/* columns rows colors chars-per-pixel */
"64 64 162 2 ",
"   c #020204",
".  c #090605",
"X  c #0C0905",
"o  c #070708",
"O  c #0C0B0B",
"+  c #14110F",
"@  c #131313",
"#  c #1B1B1B",
"$  c #201505",
"%  c #241B0B",
"&  c #3E2B06",
"*  c #242424",
"=  c #2E2D2D",
"-  c #343434",
";  c #3C3C3C",
":  c #452E07",
">  c #452E0A",
",  c #4D3206",
"<  c #513507",
"1  c #5C3B05",
"2  c #5B3A09",
"3  c #5F4A05",
"4  c #5D4208",
"5  c #6A4405",
"6  c #6F4F06",
"7  c #62410A",
"8  c #744B04",
"9  c #7E5406",
"0  c #5B4D34",
"q  c #614028",
"w  c #6A5734",
"e  c #444343",
"r  c #4A4A4A",
"t  c #535352",
"y  c #5D5D5D",
"u  c #6F6F6F",
"i  c #666665",
"p  c #737373",
"a  c #777778",
"s  c gray48",
"d  c #835405",
"f  c #8D5A05",
"g  c #855906",
"h  c #915D04",
"j  c #8F6A07",
"k  c #966306",
"l  c #9A6606",
"z  c #9E6906",
"x  c #946709",
"c  c #9D6C09",
"v  c #946B09",
"b  c #9C7209",
"n  c #A36D06",
"m  c #A67006",
"M  c #AB7306",
"N  c #AC770A",
"B  c #A47D0A",
"V  c #B17707",
"C  c #B37907",
"Z  c #B57C09",
"A  c #B97F08",
"S  c #B57F1B",
"D  c #9A723E",
"F  c #A98209",
"G  c #BB8308",
"H  c #BF890A",
"J  c #B89207",
"K  c #B39206",
"L  c #B78214",
"P  c #B88A1F",
"I  c #B5821B",
"U  c #BC852E",
"Y  c #A5823F",
"T  c #B78C31",
"R  c #B09038",
"E  c #C38707",
"W  c #C48907",
"Q  c #C98E07",
"!  c #C58908",
"~  c #CB8E08",
"^  c #CB9007",
"/  c #C4940B",
"(  c #CD9209",
")  c #D29607",
"_  c #D3950C",
"`  c #D49A09",
"'  c #D99D09",
"]  c #CE9512",
"[  c #D39513",
"{  c #CEA608",
"}  c #D0A40E",
"|  c #DDA309",
" . c #D9AA09",
".. c #DCB30A",
"X. c #D6A110",
"o. c #E1A709",
"O. c #E5AC0A",
"+. c #E8AF0C",
"@. c #E5B30A",
"#. c #ECB30B",
"$. c #E6BF0C",
"%. c #EBBB0B",
"&. c #F2B60C",
"*. c #F5BC0C",
"=. c #ECB312",
"-. c #E7B119",
";. c #E5BF18",
":. c #C7962C",
">. c #DCA328",
",. c #D6A430",
"<. c #D9A733",
"1. c #DFAD36",
"2. c #EAB521",
"3. c #E6C10D",
"4. c #ECC40C",
"5. c #EECC0E",
"6. c #F4C20B",
"7. c #F2CD0C",
"8. c #F5D40E",
"9. c #F0C414",
"0. c #F2D411",
"q. c #F6D912",
"w. c #EDCF20",
"e. c #F5C92C",
"r. c #EED12A",
"t. c #F4D632",
"y. c #F6D738",
"u. c #A68440",
"i. c #A08E69",
"p. c #F5D744",
"a. c #F6D943",
"s. c #828282",
"d. c #888887",
"f. c #8A8A89",
"g. c #979797",
"h. c #9D9D9C",
"j. c #AAA59B",
"k. c #B9AD92",
"l. c #A5A5A5",
"z. c #A8A8A7",
"x. c #ABABAB",
"c. c #B6B0A3",
"v. c #BAB3A6",
"b. c #B4B4B3",
"n. c #B8B7B7",
"m. c #B9B8B7",
"M. c #BEBDBC",
"N. c #D0C7AC",
"B. c #C1C0BF",
"V. c #C4C4C4",
"C. c #CBCBCB",
"Z. c #D0CFCF",
"A. c #D4D4D3",
"S. c #DDDDDD",
"D. c #E0E0DF",
"F. c #FAF2DF",
"G. c #E3E3E3",
"H. c #EDEDEC",
"J. c #F5F5F5",
"K. c #F8F8F7",
"L. c #FDFDFB",
"P. c None",
/* pixels */
"P.P.P.P.P.P.P.P.P.P.P.P.P.P.P.P.P.P.P.P.P.P.P.P.P.P.P.P.P.P.P.P.P.P.P.P.P.P.P.P.P.P.P.P.P.P.P.P.P.P.P.P.P.P.P.P.P.P.P.P.P.P.P.P.",
"P.P.P.P.P.P.P.P.P.P.P.P.P.P.P.P.P.P.P.P.P.P.P.P.P.P.P.P.P.P.P.P.P.P.P.P.P.P.P.P.P.P.P.P.P.P.P.P.P.P.P.P.P.P.P.P.P.P.P.P.P.P.P.P.",
"P.P.P.P.P.P.P.P.P.P.P.P.P.P.P.P.P.P.P.P.P.P.P.P.P.P.P.                  P.P.P.P.P.P.P.P.P.P.P.P.P.P.P.P.P.P.P.P.P.P.P.P.P.P.P.P.",
"P.P.P.P.P.P.P.P.P.P.P.P.P.P.P.P.P.P.P.P.P.P.P.P.P.                          P.P.P.P.P.P.P.P.P.P.P.P.P.P.P.P.P.P.P.P.P.P.P.P.P.P.",
"P.P.P.P.P.P.P.P.P.P.P.P.P.P.P.P.P.P.P.P.P.P.P.P.                      * = O     P.P.P.P.P.P.P.P.P.P.P.P.P.P.P.P.P.P.P.P.P.P.P.P.",
"P.P.P.P.P.P.P.P.P.P.P.P.P.P.P.P.P.P.P.P.P.P.P.                      . e s e @     P.P.P.P.P.P.P.P.P.P.P.P.P.P.P.P.P.P.P.P.P.P.P.",
"P.P.P.P.P.P.P.P.P.P.P.P.P.P.P.P.P.P.P.P.P.P.P.                      O e t - *       P.P.P.P.P.P.P.P.P.P.P.P.P.P.P.P.P.P.P.P.P.P.",
"P.P.P.P.P.P.P.P.P.P.P.P.P.P.P.P.P.P.P.P.P.P.                        . @             P.P.P.P.P.P.P.P.P.P.P.P.P.P.P.P.P.P.P.P.P.P.",
"P.P.P.P.P.P.P.P.P.P.P.P.P.P.P.P.P.P.P.P.P.P.                                          P.P.P.P.P.P.P.P.P.P.P.P.P.P.P.P.P.P.P.P.P.",
"P.P.P.P.P.P.P.P.P.P.P.P.P.P.P.P.P.P.P.P.P.P.        O                 + @             P.P.P.P.P.P.P.P.P.P.P.P.P.P.P.P.P.P.P.P.P.",
"P.P.P.P.P.P.P.P.P.P.P.P.P.P.P.P.P.P.P.P.P.P.          ;           @ u ;   e           P.P.P.P.P.P.P.P.P.P.P.P.P.P.P.P.P.P.P.P.P.",
"P.P.P.P.P.P.P.P.P.P.P.P.P.P.P.P.P.P.P.P.P.P.    f.V.z.O o       p l.n.A.x.o @         P.P.P.P.P.P.P.P.P.P.P.P.P.P.P.P.P.P.P.P.P.",
"P.P.P.P.P.P.P.P.P.P.P.P.P.P.P.P.P.P.P.P.P.P.  0 H.L.L.H.      p K.L.n.K.K.a           P.P.P.P.P.P.P.P.P.P.P.P.P.P.P.P.P.P.P.P.P.",
"P.P.P.P.P.P.P.P.P.P.P.P.P.P.P.P.P.P.P.P.P.P.  b.r ; = L.O     l.L.o O d.C.L.          P.P.P.P.P.P.P.P.P.P.P.P.P.P.P.P.P.P.P.P.P.",
"P.P.P.P.P.P.P.P.P.P.P.P.P.P.P.P.P.P.P.P.P.P.  n.O   r L.O   @ t L.  o o e L.          P.P.P.P.P.P.P.P.P.P.P.P.P.P.P.P.P.P.P.P.P.",
"P.P.P.P.P.P.P.P.P.P.P.P.P.P.P.P.P.P.P.P.P.P.  d.t     R @.@.@.{ N.      x.K.          P.P.P.P.P.P.P.P.P.P.P.P.P.P.P.P.P.P.P.P.P.",
"P.P.P.P.P.P.P.P.P.P.P.P.P.P.P.P.P.P.P.P.P.P.    K.0 H @.%.$.$.;.e.4.F j.L.g.            P.P.P.P.P.P.P.P.P.P.P.P.P.P.P.P.P.P.P.P.",
"P.P.P.P.P.P.P.P.P.P.P.P.P.P.P.P.P.P.P.P.P.P.    x E O.#.$.4.0.y.p.8.8.8.9./             P.P.P.P.P.P.P.P.P.P.P.P.P.P.P.P.P.P.P.P.",
"P.P.P.P.P.P.P.P.P.P.P.P.P.P.P.P.P.P.P.P.P.P.  9 G ' #.#.4.5.t.a.q.q.q.5.B &.            P.P.P.P.P.P.P.P.P.P.P.P.P.P.P.P.P.P.P.P.",
"P.P.P.P.P.P.P.P.P.P.P.P.P.P.P.P.P.P.P.P.P.P.  x ^ o.%.3.4.w.t.8.8.8.b ( | '             P.P.P.P.P.P.P.P.P.P.P.P.P.P.P.P.P.P.P.P.",
"P.P.P.P.P.P.P.P.P.P.P.P.P.P.P.P.P.P.P.P.P.P.    8 J *.9.r.0.0.$.6 ~ ' | E w     r u O     P.P.P.P.P.P.P.P.P.P.P.P.P.P.P.P.P.P.P.",
"P.P.P.P.P.P.P.P.P.P.P.P.P.P.P.P.P.P.P.P.P.P.    M.j N J K E ~ ~ _ ~ A B.C.M.o     d.s.@   P.P.P.P.P.P.P.P.P.P.P.P.P.P.P.P.P.P.P.",
"P.P.P.P.P.P.P.P.P.P.P.P.P.P.P.P.P.P.P.P.P.P.  O M.b.u.n E ~ E C A k.M.B.S.H.l.    # e       P.P.P.P.P.P.P.P.P.P.P.P.P.P.P.P.P.P.",
"P.P.P.P.P.P.P.P.P.P.P.P.P.P.P.P.P.P.P.P.P.    O D.C.M.M.i.D u.v.M.b.C.J.L.L.K.O             . P.P.P.P.P.P.P.P.P.P.P.P.P.P.P.P.P.",
"P.P.P.P.P.P.P.P.P.P.P.P.P.P.P.P.P.P.P.P.P.O   M.L.G.B.M.M.M.M.M.C.G.L.L.L.L.L.K.              P.P.P.P.P.P.P.P.P.P.P.P.P.P.P.P.P.",
"P.P.P.P.P.P.P.P.P.P.P.P.P.P.P.P.P.P.P.P.  o ; L.L.L.A.M.M.M.V.D.J.K.L.L.L.L.L.L.r               P.P.P.P.P.P.P.P.P.P.P.P.P.P.P.P.",
"P.P.P.P.P.P.P.P.P.P.P.P.P.P.P.P.P.P.P.      L.L.L.L.L.K.G.H.L.L.L.L.L.L.L.L.L.L.L.                P.P.P.P.P.P.P.P.P.P.P.P.P.P.P.",
"P.P.P.P.P.P.P.P.P.P.P.P.P.P.P.P.P.P.      M.L.L.L.L.L.L.L.L.L.L.L.L.L.L.L.L.L.L.L.X                 P.P.P.P.P.P.P.P.P.P.P.P.P.P.",
"P.P.P.P.P.P.P.P.P.P.P.P.P.P.P.P.P.      @ S.L.L.L.L.L.L.K.L.L.L.L.L.L.L.L.L.L.J.H.p                   P.P.P.P.P.P.P.P.P.P.P.P.P.",
"P.P.P.P.P.P.P.P.P.P.P.P.P.P.P.P.        - b.G.J.L.L.J.G.G.D.J.K.K.K.H.G.G.S.A.C.C.A.                    P.P.P.P.P.P.P.P.P.P.P.P.",
"P.P.P.P.P.P.P.P.P.P.P.P.P.P.P.          y x.A.H.L.L.L.K.H.L.L.L.L.L.L.J.S.A.V.V.V.V.Z.  o ;               P.P.P.P.P.P.P.P.P.P.P.",
"P.P.P.P.P.P.P.P.P.P.P.P.P.P.P.    .   # V.J.L.L.L.L.L.L.K.L.L.L.L.K.L.K.L.L.K.J.A.V.A.d.    # #           P.P.P.P.P.P.P.P.P.P.P.",
"P.P.P.P.P.P.P.P.P.P.P.P.P.P.    #     b.L.L.L.L.L.L.L.L.L.L.L.L.L.L.L.L.K.L.L.L.L.J.V.H.        @           P.P.P.P.P.P.P.P.P.P.",
"P.P.P.P.P.P.P.P.P.P.P.P.P.P.    =   + L.L.L.L.L.L.L.L.L.L.L.K.L.L.L.L.L.L.L.L.L.L.K.K.A.G.  * - #           P.P.P.P.P.P.P.P.P.P.",
"P.P.P.P.P.P.P.P.P.P.P.P.P.P.  -     L.L.L.L.L.L.L.L.K.L.L.L.L.L.L.L.L.L.L.L.L.K.L.L.L.L.L.O = - O r           P.P.P.P.P.P.P.P.P.",
"P.P.P.P.P.P.P.P.P.P.P.P.P.    #   - K.L.L.L.L.L.L.L.K.K.L.L.L.L.K.L.L.L.L.L.L.L.L.L.L.L.L.*         o         P.P.P.P.P.P.P.P.P.",
"P.P.P.P.P.P.P.P.P.P.P.P.P.  =     L.L.L.L.L.L.L.L.L.H.K.L.L.K.L.L.L.L.L.L.L.L.L.L.L.L.L.L.A.        -         P.P.P.P.P.P.P.P.P.",
"P.P.P.P.P.P.P.P.P.P.P.P.    -   * L.K.L.K.L.L.K.L.L.G.L.L.L.L.L.L.K.L.L.L.L.L.K.L.L.L.L.L.L.        *           P.P.P.P.P.P.P.P.",
"P.P.P.P.P.P.P.P.P.P.P.P.  o     A.L.K.L.L.L.L.L.L.L.S.K.K.L.L.L.L.L.L.L.L.L.L.L.K.L.L.L.L.L.        +           P.P.P.P.P.P.P.P.",
"P.P.P.P.P.P.P.P.P.P.P.    O o   L.L.L.L.L.L.L.L.L.L.S.J.L.L.L.L.L.L.L.L.K.L.L.L.L.K.L.L.K.L.                    P.P.P.P.P.P.P.P.",
"P.P.P.P.P.P.P.P.P.P.      # O   L.L.L.K.L.L.L.L.L.K.S.L.L.L.L.L.L.L.L.L.L.L.L.L.L.K.L.L.L.L.      *             P.P.P.P.P.P.P.P.",
"P.P.P.P.P.P.P.P.P.P.      ; e O L.J.J.L.L.L.L.L.L.L.D.L.L.L.L.L.L.L.L.L.L.L.K.L.K.L.L.L.J.L.      =             P.P.P.P.P.P.P.P.",
"P.P.P.P.P.P.P.P.P.P.        0 @ L.L.L.L.L.L.L.K.L.L.D.L.L.L.L.L.L.L.L.L.L.L.K.L.L.L.L.L.L.L.    @ O O           P.P.P.P.P.P.P.P.",
"P.P.P.P.P.P.P.P.P.P.  b +.x   ; J.L.K.K.L.L.K.L.L.L.D.L.L.L.K.J.L.L.L.L.L.L.L.L.L.L.L.L.L.S.O .         # i     P.P.P.P.P.P.P.P.",
"P.P.P.P.P.P.P.P.P.P.~ &.*.*.@.  # L.L.L.L.L.K.L.L.L.D.L.L.L.K.L.L.L.L.L.L.L.L.L.L.L.F.-.2.[ o             ; #   P.P.P.P.P.P.P.P.",
"P.P.P.P.P.P.P.P.P.G | #.*.*.*.#.  O A.L.L.L.L.L.K.L.S.L.L.L.L.L.L.L.L.L.L.L.L.L.L.L.>.*.7.0.            @ O 3 8.P.P.P.P.P.P.P.P.",
"P.P.P.P.P.L Z U L [ #.&.*.*.*.*. .    - L.K.L.K.L.L.J.K.L.L.L.L.L.L.L.L.L.L.L.L.L.L.1.&.*.` .             X 6.6.} P.P.P.P.P.P.P.",
"P.P.P.G ' o.| | o.=.*.*.*.*.*.*.6.^     o A.L.L.L.L.L.L.K.L.L.K.L.L.L.L.L.L.L.L.L.V.<.&.#.` 5 X         $ ` %.%.] P.P.P.P.P.P.P.",
"P.P.P.[ =.&.&.&.*.*.6.*.*.*.*.*.*.5.4       - L.K.L.L.L.L.L.L.L.K.L.L.K.L.L.L.L.A.V.,.O.O.' G M d 6 x Z ( +.&.*.%.P.P.P.P.P.P.P.",
"P.P.P._ #.*.*.6.*.*.*.*.*.*.6.*.*.6.3.        O K.K.L.L.L.L.L.L.L.L.L.L.L.L.L.L.A.V.:.O.%.O.) ~ ~ Q ^ ' &.*.*.*.&.X.P.P.P.P.P.P.",
"P.P.P.] +.&.*.*.*.*.*.*.*.*.*.*.*.*.6.`         # L.L.L.K.L.L.L.L.L.K.L.L.K.L.L.G.V.T ' O.#.+.o. .| o.#.*.*.*.*.*.&.U P.P.P.P.P.",
"P.P.P.! O.&.*.*.6.*.*.*.*.*.*.*.*.*.*.5.b       O L.L.L.L.L.L.L.L.L.L.L.K.L.L.L.H.n.n ) #.*.&.&.#.#.#.&.*.6.*.*.*.*.*.#.P.P.P.P.",
"P.P.P.! o.&.*.*.*.*.*.*.*.*.*.*.*.*.*.*.5.,   * L.L.K.L.L.L.L.L.L.L.L.L.L.L.L.L.h.  z ` #.&.*.*.*.*.*.*.*.*.*.*.*.*.6.*.*.=.P.P.",
"P.P.P.! o.&.*.*.*.*.*.*.6.*.*.*.6.*.*.&.%...c.L.L.L.L.L.K.L.L.L.L.L.L.L.L.L.L.O     z ' #.*.*.*.*.*.*.*.*.6.*.*.*.*.*.&.*.O.P.P.",
"P.P.P.! o.*.&.*.*.6.*.6.*.*.*.*.*.*.*.6.*.4./ H.K.L.L.L.K.L.L.L.L.L.L.L.L.p       . k | %.&.*.*.*.*.*.*.*.*.*.6.*.*.*.=.| U P.P.",
"P.P.A ` &.&.6.*.*.*.*.*.*.*.*.6.*.*.*.*.&.@.' g h.L.L.L.L.L.L.L.L.L.K.r           % x ` =.*.*.*.*.*.6.*.*.*.*.*.*.&.o._ P.P.P.P.",
"P.P.! ' #.&.&.&.*.*.&.*.*.*.*.*.*.&.*.*.*.&.` z %   O - y t ; * o                 & n ` %.&.*.*.*.6.*.*.&.=.&.+.[ G P.P.P.P.P.P.",
"P.P.A W _ | o.o.+.=.&.&.*.&.*.*.*.6.*.*.&.O.) z 1                                 , n ( +.&.*.*.*.&.&.&.O.| ( l P.P.P.P.P.P.P.P.",
"P.P.P.P.x n M A E E ~ _ ' o.#.&.&.&.*.&.#.` V h 1                                 : h G ' +.&.&.&.&.o.' W n P.P.P.P.P.P.P.P.P.P.",
"P.P.P.P.P.P.P.P.f h h l n M G ~ ` | | ' ~ C h 8 :       P.P.P.P.P.P.P.P.P.P.      & 9 M E ) | o.' _ G M q P.P.P.P.P.P.P.P.P.P.P.",
"P.P.P.P.P.P.P.P.P.P.P.P.P.7 8 h l n M n h d 5 < P.P.P.P.P.P.P.P.P.P.P.P.P.P.P.P.P.P.1 h m V C Z V n g P.P.P.P.P.P.P.P.P.P.P.P.P.",
"P.P.P.P.P.P.P.P.P.P.P.P.P.P.P.P.< 1 5 8 5 1 > P.P.P.P.P.P.P.P.P.P.P.P.P.P.P.P.P.P.P.P., 8 d h f 8 2 P.P.P.P.P.P.P.P.P.P.P.P.P.P.",
"P.P.P.P.P.P.P.P.P.P.P.P.P.P.P.P.P.P.P.P.P.P.P.P.P.P.P.P.P.P.P.P.P.P.P.P.P.P.P.P.P.P.P.P.P.P.P.P.P.P.P.P.P.P.P.P.P.P.P.P.P.P.P.P.",
"P.P.P.P.P.P.P.P.P.P.P.P.P.P.P.P.P.P.P.P.P.P.P.P.P.P.P.P.P.P.P.P.P.P.P.P.P.P.P.P.P.P.P.P.P.P.P.P.P.P.P.P.P.P.P.P.P.P.P.P.P.P.P.P."
};
