/* XPM */
static char *result[] = {
/* columns rows colors chars-per-pixel */
"32 32 130 2 ",
"   c #262131",
".  c #272231",
"X  c #282432",
"o  c #322533",
"O  c #372534",
"+  c #3A2734",
"@  c #342935",
"#  c #352A35",
"$  c #3A2A36",
"%  c #3F2E37",
"&  c #372F38",
"*  c #3C2F39",
"=  c #383139",
"-  c #38323B",
";  c #39333C",
":  c #39343D",
">  c #422837",
",  c #442A36",
"<  c #472B36",
"1  c #442C38",
"2  c #452D39",
"3  c #592F3C",
"4  c #47323B",
"5  c #4C3038",
"6  c #4E3339",
"7  c #4B353A",
"8  c #4F373B",
"9  c #43383C",
"0  c #583039",
"q  c #5C343D",
"w  c #5D373F",
"e  c #50383B",
"r  c #533D3E",
"t  c #65333F",
"y  c #673943",
"u  c #603D42",
"i  c #7B3E40",
"p  c #514241",
"a  c #554140",
"s  c #574743",
"d  c #584845",
"f  c #5A4C48",
"g  c #5B524F",
"h  c #5D524F",
"j  c #5E5450",
"k  c #624140",
"l  c #853D40",
"z  c #863C41",
"x  c #8B3A48",
"c  c #8E3E49",
"v  c #8B4744",
"b  c #8E4A47",
"n  c #8D404B",
"m  c #964045",
"M  c #974145",
"N  c #984145",
"B  c #954844",
"V  c #974945",
"C  c #92474E",
"Z  c #9B4D4D",
"A  c #875248",
"S  c #8A574B",
"D  c #95554B",
"F  c #95584B",
"G  c #A14744",
"H  c #A44C46",
"J  c #A54E47",
"K  c #A64F47",
"L  c #A4564E",
"P  c #A85249",
"I  c #AA564A",
"U  c #A5584F",
"Y  c #AB584B",
"T  c #AB5B4E",
"R  c #AD5A4C",
"E  c #AE5D4D",
"W  c #AF5D4D",
"Q  c #AE5E4E",
"!  c #B05F4E",
"~  c #A65A50",
"^  c #A35F57",
"/  c #A85C50",
"(  c #957058",
")  c #B1604E",
"_  c #A66450",
"`  c #A86550",
"'  c #AD6651",
"]  c #AA6C54",
"[  c #AC6D54",
"{  c #B26350",
"}  c #B26752",
"|  c #B56851",
" . c #B66952",
".. c #B76A52",
"X. c #B76B53",
"o. c #B46A54",
"O. c #B86C53",
"+. c #B86D54",
"@. c #B96E54",
"#. c #BA7156",
"$. c #B2745E",
"%. c #B3765F",
"&. c #BD7759",
"*. c #AB6F66",
"=. c #BE7F60",
"-. c #C07D5D",
";. c #B98E66",
":. c #BC8F67",
">. c #BF9A71",
",. c #C1805E",
"<. c #C48863",
"1. c #C78C64",
"2. c #C09068",
"3. c #C69169",
"4. c #CC9A6C",
"5. c #CE9B6C",
"6. c #CF9E6E",
"7. c #C4A37A",
"8. c #CEA279",
"9. c #D1A272",
"0. c #D1A373",
"q. c #D3A777",
"w. c #D5AB7B",
"e. c #D4AA7C",
"r. c #D7AE7D",
"t. c #C8AD83",
"y. c #CCB48A",
"u. c #DEBD8B",
"i. c #E0C18F",
"p. c None",
/* pixels */
"p.p.p.p.p.p.p.p.p.p.p.p.p.p.p.p.p.p.p.p.p.p.p.p.p.p.p.p.p.p.p.p.",
"p.p.p.p.p.p.p.p.p.p.p.p.p.p.p.p.p.p.p.p.p.p.p.p.p.p.p.p.p.p.p.p.",
"p.p.p.p.p.p.p.p.p.p.p.p.p.p.p.p.p.p.p.p.p.p.p.p.p.p.p.p.p.p.p.p.",
"p.p.p.p.p.p.# & & & & & & & & & & ; = - : : : : : : p.p.p.p.p.p.",
"p.p.p.p.p.8 ] ;.;.;.;.;.;.;.;.;.;.t.>.7.y.y.y.y.y.y.g p.p.p.p.p.",
"p.p.p.p.p.e o.^ 4.6.6.6.6.6.6.6.6.w.0.q.r.r.r.e.*.8.f p.p.p.p.p.",
"p.p.p.p.p.6 T Z <.1.1.1.1.1.1.1.1.1.1.1.1.1.1.<.Z =.a p.p.p.p.p.",
"p.p.p.p.p., V } } ` _ ' } } } } } } } } ' _ ` } } ` 7 p.p.p.p.p.",
"p.p.p.p.p.  > x x 1 @ t x x x x x x x x t @ 1 x x 1 . p.p.p.p.p.",
"p.p.p.p.p.+ i U U $ 0 z m m m m m m m m z 0 O M L A % p.p.p.p.p.",
"p.p.p.p.p.5 Q ,.,.w v I I I I I I I I I K l 3 Y -.,.r p.p.p.p.p.",
"p.p.p.p.p.e &.6.6.C / @.@.@.+. .@... .O.E N c #.5.9.d p.p.p.p.p.",
"p.p.p.p.p.e &.6.6.C / @.@.@.| J O.P H ! E N c #.5.u.h p.p.p.p.p.",
"p.p.p.p.p.e &.6.6.C / @.@.@.X.) +.J G E E N c #.5.i.j p.p.p.p.p.",
"p.p.p.p.p.e &.6.6.C / @.@.@.@.@.@.R I { E N c #.5.i.j p.p.p.p.p.",
"p.p.p.p.p.e &.6.6.C / @.@.@.@.@.@.@.@.@.E N c #.5.i.j p.p.p.p.p.",
"p.p.p.p.p.e &.6.6.C / @.@.@.@.@.@.@.@.@.E N c #.5.i.j p.p.p.p.p.",
"p.p.p.p.p.e &.6.6.C / @.@.@.@.@.@.@.W { E N c #.5.w.f p.p.p.p.p.",
"p.p.p.p.p.e &.6.6.C / @.@.@.@.@.@.@.W { E N c #.5.w.f p.p.p.p.p.",
"p.p.p.p.p.e &.6.6.C / @.@.@.@.@.@.@.@.@.E N c #.5.u.h p.p.p.p.p.",
"p.p.p.p.p.e &.6.6.C / @.@.@.@.@.@.@.@.@.E N c #.5.9.d p.p.p.p.p.",
"p.p.p.p.p.e &.6.6.u F @.@.@.@.@.@.@.@.@.E l q #.5.6.s p.p.p.p.p.",
"p.p.p.p.p.% S %.%.* k D U U U U U U U U b 0 $ ~ $.( 9 p.p.p.p.p.",
"p.p.p.p.p.. 2 n n 4 & y n n n n n n n n y & 4 n n 4 X p.p.p.p.p.",
"p.p.p.p.p.7 [ 3.3.:.;.2.3.3.3.3.3.3.3.3.2.;.:.3.3.:.p p.p.p.p.p.",
"p.p.p.p.p.e o.^ 4.6.6.6.6.6.6.6.6.6.6.6.6.6.6.4.^ 3.s p.p.p.p.p.",
"p.p.p.p.p.6 T Z <.1.1.1.1.1.1.1.1.1.1.1.1.1.1.<.Z =.a p.p.p.p.p.",
"p.p.p.p.p.< B _ _ _ _ _ _ _ _ _ _ _ _ _ _ _ _ _ _ _ 8 p.p.p.p.p.",
"p.p.p.p.p.p.o @ @ @ @ @ @ @ @ @ @ @ @ @ @ @ @ @ @ @ p.p.p.p.p.p.",
"p.p.p.p.p.p.p.p.p.p.p.p.p.p.p.p.p.p.p.p.p.p.p.p.p.p.p.p.p.p.p.p.",
"p.p.p.p.p.p.p.p.p.p.p.p.p.p.p.p.p.p.p.p.p.p.p.p.p.p.p.p.p.p.p.p.",
"p.p.p.p.p.p.p.p.p.p.p.p.p.p.p.p.p.p.p.p.p.p.p.p.p.p.p.p.p.p.p.p."
};
