/* XPM */
static char *result[] = {
/* columns rows colors chars-per-pixel */
"64 64 189 2 ",
"   c #262230",
".  c #2A2533",
"X  c #2C2935",
"o  c #322633",
"O  c #392734",
"+  c #332935",
"@  c #3E2C36",
"#  c #342D38",
"$  c #3A2F38",
"%  c #373037",
"&  c #37313B",
"*  c #3A343C",
"=  c #432C37",
"-  c #492B37",
";  c #412E39",
":  c #4B2E38",
">  c #542E3A",
",  c #453239",
"<  c #4B3539",
"1  c #4E3C3E",
"2  c #42383D",
"3  c #54333B",
"4  c #5C333B",
"5  c #51383C",
"6  c #5B3B3E",
"7  c #63343E",
"8  c #6F373D",
"9  c #653C3E",
"0  c #6F393E",
"q  c #72373E",
"w  c #703A3E",
"e  c #5E403F",
"r  c #4F3F40",
"t  c #593B41",
"y  c #6F3640",
"u  c #653C42",
"i  c #6C3D41",
"p  c #753741",
"a  c #743D41",
"s  c #7B3D44",
"d  c #7B3743",
"f  c #4F4140",
"g  c #4F4749",
"h  c #554643",
"j  c #5A4543",
"k  c #544847",
"l  c #5C4A46",
"z  c #554C4B",
"x  c #5B4E4A",
"c  c #5C514D",
"v  c #5E5450",
"b  c #644342",
"n  c #6A4442",
"m  c #624945",
"M  c #6B4842",
"N  c #7C4346",
"B  c #7C4C46",
"V  c #7F4148",
"C  c #734C49",
"Z  c #774043",
"A  c #6E574B",
"S  c #71544A",
"D  c #7F5349",
"F  c #735A4D",
"G  c #765E51",
"H  c #6E6359",
"J  c #796455",
"K  c #7C6B5C",
"L  c #7F6F60",
"P  c #843C43",
"I  c #8E3C46",
"U  c #8F3D48",
"Y  c #933F46",
"T  c #913F48",
"R  c #864344",
"E  c #8B4A46",
"W  c #84474A",
"Q  c #8C4449",
"!  c #854B4B",
"~  c #8D4B4B",
"^  c #864946",
"/  c #954146",
"(  c #9B4546",
")  c #914C46",
"_  c #9E4847",
"`  c #94454B",
"'  c #934A4B",
"]  c #994C4D",
"[  c #84534C",
"{  c #8A554A",
"}  c #865047",
"|  c #93544B",
" . c #9E524D",
".. c #965B4C",
"X. c #9B5B4D",
"o. c #974E50",
"O. c #8F5A52",
"+. c #945351",
"@. c #9B5452",
"#. c #975A53",
"$. c #A34C46",
"%. c #A44F48",
"&. c #A5514A",
"*. c #A9564B",
"=. c #A45B4E",
"-. c #AD5C4D",
";. c #B05F4E",
":. c #A25750",
">. c #A35D55",
",. c #A95D50",
"<. c #9B624F",
"1. c #8B6A55",
"2. c #8B6253",
"3. c #9C6454",
"4. c #9F6A55",
"5. c #976855",
"6. c #9A765B",
"7. c #967057",
"8. c #A6624F",
"9. c #B1614F",
"0. c #A36552",
"q. c #AD6252",
"w. c #AE6D55",
"e. c #A96459",
"r. c #AB6A5A",
"t. c #B36550",
"y. c #B56A53",
"u. c #B96E54",
"i. c #B26F59",
"p. c #A6755C",
"a. c #AD745A",
"s. c #A57A5E",
"d. c #AA7C5F",
"f. c #B77056",
"g. c #B4755C",
"h. c #BA755A",
"j. c #B37A5D",
"k. c #BF7C5C",
"l. c #9B7C60",
"z. c #AC7D60",
"x. c #B17465",
"c. c #B37C60",
"v. c #B97D61",
"b. c #C07F5E",
"n. c #BF825F",
"m. c #9F8266",
"M. c #96856E",
"N. c #A28A6D",
"B. c #AA8566",
"V. c #B68664",
"C. c #BC8363",
"Z. c #B28A65",
"A. c #BD8B66",
"S. c #B6926D",
"D. c #BF9268",
"F. c #BB8B73",
"G. c #A79477",
"H. c #BA9B75",
"J. c #B69875",
"K. c #BFA57E",
"L. c #C1815E",
"P. c #C28461",
"I. c #C18966",
"U. c #C18D6E",
"Y. c #C99166",
"T. c #C39369",
"R. c #CA9469",
"E. c #CD9B6D",
"W. c #C2996E",
"Q. c #D09E6F",
"!. c #CE9E70",
"~. c #C69A74",
"^. c #D09F70",
"/. c #C6A176",
"(. c #CEA375",
"). c #C9A47B",
"_. c #C9A87D",
"`. c #D2A475",
"'. c #D3AA7B",
"]. c #D8AF7F",
"[. c #D0A779",
"{. c #C6A682",
"}. c #CBAE84",
"|. c #D4AE80",
" X c #CFB387",
".X c #D4B080",
"XX c #DAB483",
"oX c #DCB886",
"OX c None",
/* pixels */
"OXOXOXOXOXOXOXOXOXOXOXOXOXOXOXOXOXOXOXOXOXOXOXOXOXOXOXOXOXOXOXOXOXOXOXOXOXOXOXOXOXOXOXOXOXOXOXOXOXOXOXOXOXOXOXOXOXOXOXOXOXOXOXOX",
"OXOXOXOXOXOXOXOXOXOXOXOXOXOXOXOXOXOXOXOXOXOXOXOXOXOXOXOXOXOXOXOXOXOXOXOXOXOXOXOXOXOXOXOXOXOXOXOXOXOXOXOXOXOXOXOXOXOXOXOXOXOXOXOX",
"OXOXOXOXOXOXOXOXOXOXOXOXOXOXOXOXOXOXOXOXOXOXOXOXOXOXOXOXOXOXOXOXOXOXOXOXOXOXOXOXOXOXOXOXOXOXOXOXOXOXOXOXOXOXOXOXOXOXOXOXOXOXOXOX",
"OXOXOXOXOXOXOXOXOXOXOXOXOXOXOXOXOXOXOXOXOXOXOXOXOXOXOXOXOXOXOXOXOXOXOXOXOXOXOXOXOXOXOXOXOXOXOXOXOXOXOXOXOXOXOXOXOXOXOXOXOXOXOXOX",
"OXOXOXOXOXOXOXOXOXOXOXOXOXOXOXOXOXOXOXOXOXOXOXOXOXOXOXOXOXOXOXOXOXOXOXOXOXOXOXOXOXOXOXOXOXOXOXOXOXOXOXOXOXOXOXOXOXOXOXOXOXOXOXOX",
"OXOXOXOXOXOXOXOXOXOXOXOXOX. . X X X X X X X X X X X X X X X X X X X X X X X X X X X X X X X X X X X X OXOXOXOXOXOXOXOXOXOXOXOXOX",
"OXOXOXOXOXOXOXOXOXOXOXOX+ # # # % # # # % # # # # # # # # # # $ # # & & # # # & & & & & * * & & * * & & OXOXOXOXOXOXOXOXOXOXOXOX",
"OXOXOXOXOXOXOXOXOXOXOX, 5 5 h h h h h h h h h e h h h h h h h h h j x c x x x c v v v v v v v v v v v c g OXOXOXOXOXOXOXOXOXOXOX",
"OXOXOXOXOXOXOXOXOXOX, e [ 2.7.6.6.6.6.6.6.6.6.6.6.6.6.6.6.6.6.6.6.l.N.N.m.m.m.N.G.G.G.G.G.G.G.G.G.G.G.M.H g OXOXOXOXOXOXOXOXOXOX",
"OXOXOXOXOXOXOXOXOX+ < n <.w.j.V.A.T.D.D.D.D.D.D.D.A.T.T.D.D.D.D.D.W._._./.~./._.}..X X X X X X}.{.{.}.J.K z * OXOXOXOXOXOXOXOXOX",
"OXOXOXOXOXOXOXOXOX+ < n ..y.w.d.T.W.W.E.T.E.T.E.W.E.R.W.W.E.E.R.W.!.(.'.(.(.(.[.]..X.X.X|.XX|.).F.F.~.J.J k * OXOXOXOXOXOXOXOXOX",
"OXOXOXOXOXOXOXOXOX+ < n X.q.>.r.P.R.E.E.E.E.E.E.E.E.E.E.E.E.E.E.E.E.`.(.!.^.^.`.`.`.[.[.`.(.(.R.x.x.U.B.G f * OXOXOXOXOXOXOXOXOX",
"OXOXOXOXOXOXOXOXOX+ < 9 | =.:.e.k.I.Y.Y.Y.Y.Y.Y.Y.Y.Y.Y.Y.Y.Y.Y.Y.Y.R.R.Y.R.R.R.R.R.Y.R.E.Y.R.C.e.e.v.p.S f # OXOXOXOXOXOXOXOXOX",
"OXOXOXOXOXOXOXOXOX+ = 9 ~ *.&.,.h.n.n.n.n.n.L.L.L.L.P.L.b.P.P.P.P.L.P.P.P.b.P.L.P.P.n.n.n.L.k.h.>.>.i.0.M r # OXOXOXOXOXOXOXOXOX",
"OXOXOXOXOXOXOXOXOXo = 4 R  .=.t.i.y.f.w.w.i.i.i.f.f.f.f.i.u.u.u.u.u.f.f.u.i.u.u.i.i.y.i.w.f.f.i.q.q.r...b , # OXOXOXOXOXOXOXOXOX",
"OXOXOXOXOXOXOXOXOX. O : w E  .,.-.X...| { { X.=.=.,.,.=.,.,.,.,.,.,.,.,.,.,.,.>.X.X.{ { { ..=.=.,.=...B t ; X OXOXOXOXOXOXOXOXOX",
"OXOXOXOXOXOXOXOXOX  . O - 7 P ` ` Q i 6 3 t i V T Y ` ` ` ` Y ` ` ` ` ` ' / / / V i 4 3 6 i R ` ` R i 3 @ .   OXOXOXOXOXOXOXOXOX",
"OXOXOXOXOXOXOXOXOX  . O - 7 P ` T s 3 = @ : 7 p I I T I I I I I I I T I I I I P p 7 : @ = > s U ` P u , + .   OXOXOXOXOXOXOXOXOX",
"OXOXOXOXOXOXOXOXOX  o = 7 s )  . .W 3 = = 4 q P I Y Y Y Y Y Y Y Y Y T Y / T / I P 8 4 - @ > d / ] ) W 9 < # . OXOXOXOXOXOXOXOXOX",
"OXOXOXOXOXOXOXOXOXo O > w ) =.q.q.+.t : 4 8 P / ( ( ( $.Y $.Y $.( ( ( ( ( ( ( ( / P q > - > R _ =.=.<.[ 6 @ + OXOXOXOXOXOXOXOXOX",
"OXOXOXOXOXOXOXOXOX+ = 6 } 8.y.n.h.0.M 7 w R ) %.$.$.*.$.%.%.%.%.$.$.$.%.$.%.%.$._ ) P 8 > y Q -.u.h.g.5.M , # OXOXOXOXOXOXOXOXOX",
"OXOXOXOXOXOXOXOXOX+ , 9 X.y.n.L.I.a.! a E  .*.;.-.-.-.-.;.-.;.-.;.;.-.;.-.-.;.-.*._ / P y s  .y.k.P.P.w.S 1 # OXOXOXOXOXOXOXOXOX",
"OXOXOXOXOXOXOXOXOX+ < n <.b.Y.R.R.C.+.~ | -.9.y.-.;.t.t.t.t.t.t.t.t.9.9.t.t.9.t.;.%.( R P ` ,.u.I.R.E.V.F e # OXOXOXOXOXOXOXOXOX",
"OXOXOXOXOXOXOXOXOXo < M 8.b.R.Q.Q.A.>.] =.8.y.u.b.t.b.u.u.u.t.;.u.u.t.t.9.t.y.9.9.*._ / T ] t.b.Y.Q.`.S.J h & OXOXOXOXOXOXOXOXOX",
"OXOXOXOXOXOXOXOXOX+ < M 0.n.Y.Q.E.I.>.] :.t.y.u.u.u.u.u.y.t.-.-.t.y.;.*.*.-.;.;.,.*.$.Y Y ] q.b.R.(..XJ.L z * OXOXOXOXOXOXOXOXOX",
"OXOXOXOXOXOXOXOXOX+ < M 0.L.R.Q.Q.I.>.o.:.,.y.u.u.u.u.u.y.9.*.-.t.t.-.%.$.$.-.;.-.*.( Y Y ] ;.b.Y.(.oXK.L v * OXOXOXOXOXOXOXOXOX",
"OXOXOXOXOXOXOXOXOX+ < M 0.n.R.Q.^.C.#.o.:.q.y.u.u.u.u.u.y.y.;.;.u.9.*.$.$.$.*.-.;.*.$.Y Y ] q.b.Y.`.oXK.L z * OXOXOXOXOXOXOXOXOX",
"OXOXOXOXOXOXOXOXOXO < M 0.L.R.Q.^.I.>. .:.,.y.u.u.u.u.u.u.y.t.t.u.t.-.$.$.$.-.;.-.*.$.Y T ] q.b.Y.`.oXK.L z 2 OXOXOXOXOXOXOXOXOX",
"OXOXOXOXOXOXOXOXOX+ < M 0.L.R.Q.!.I.>.o.:.,.y.u.u.u.u.u.u.u.y.y.t.;.-.*.*.*.;.;.,.*.$.Y T ] q.k.Y.(.oX{.L z * OXOXOXOXOXOXOXOXOX",
"OXOXOXOXOXOXOXOXOXO < M 0.L.R.Q.!.I.>.] >.,.y.u.u.u.u.u.u.u.u.u.b.b.;.;.-.;.;.;.-.*._ Y T ] q.k.Y.`.oXK.L z * OXOXOXOXOXOXOXOXOX",
"OXOXOXOXOXOXOXOXOX+ < M 0.L.R.Q.E.I.>.o.:.;.y.u.u.u.u.u.u.u.u.u.t.t.;.;.;.;.b.;.t.*.$.Y T ] t.k.R.`.oXK.L z * OXOXOXOXOXOXOXOXOX",
"OXOXOXOXOXOXOXOXOX# < M 0.L.R.Q.^.I.@.o.:.q.y.u.u.u.u.u.u.u.u.u.t.b.b.;.b.b.;.b.;.&.$.Y T ] q.b.Y.`.oXK.1.c * OXOXOXOXOXOXOXOXOX",
"OXOXOXOXOXOXOXOXOX+ < M 0.L.R.Q.^.U.>.o.>.,.y.u.u.u.u.u.u.u.u.u.b.;.u.u.u.u.u.u.,.*.$.Y Y ] t.k.Y.(.oX{.K z * OXOXOXOXOXOXOXOXOX",
"OXOXOXOXOXOXOXOXOX  e M 4.n.R.Q.!.C.>.] :.,.y.u.u.u.u.u.u.u.u.u.b.t.u.u.u.t.u.t.t.*._ Y Y ] q.b.Y.^.oXH.K z * OXOXOXOXOXOXOXOXOX",
"OXOXOXOXOXOXOXOXOX% < M 0.L.Y.Q.Q.P.>.o.:.;.y.u.u.u.u.u.u.u.u.u.t.t.t.t.t.t.t.;.;.*.$.Y T ] t.k.Y.`.'.J.K k * OXOXOXOXOXOXOXOXOX",
"OXOXOXOXOXOXOXOXOX+ < M 0.L.R.Q.^.C.>. .:.,.u.u.u.u.u.u.u.u.u.u.t.b.u.u.t.;.;.;.-.*._ / T ] q.k.Y.^.[.S.J h & OXOXOXOXOXOXOXOXOX",
"OXOXOXOXOXOXOXOXOX+ < M 0.n.R.Q.^.I.>.o.:.,.u.u.u.u.u.u.u.u.u.u.u.u.u.u.;.;.;.;.-.-._ Y ` ] q.k.Y.^.`.S.J h & OXOXOXOXOXOXOXOXOX",
"OXOXOXOXOXOXOXOXOX# < M 0.L.Y.Q.!.I.>.o.>.,.t.u.u.u.u.f.u.u.u.u.u.u.u.t.t.t.t.t.-.*._ Y U ] t.k.Y.^.'.H.J z * OXOXOXOXOXOXOXOXOX",
"OXOXOXOXOXOXOXOXOX+ < M 0.n.R.Q.^.U.>.` :.q.u.u.u.u.u.u.u.u.u.u.u.u.u.u.u.u.u.t.9.*.$.Y T ] q.k.Y.`.].H.K h * OXOXOXOXOXOXOXOXOX",
"OXOXOXOXOXOXOXOXOX+ < M 0.n.R.Q.E.C.>.] :.,.y.u.u.u.u.u.u.u.u.u.u.u.u.u.u.u.u.t.;.*._ Y T ] q.k.Y.`.].H.K z * OXOXOXOXOXOXOXOXOX",
"OXOXOXOXOXOXOXOXOX+ < M 0.L.R.Q.^.I.e.o.@.,.u.u.u.u.u.u.u.u.u.u.u.u.u.u.u.u.u.t.t.*._ Y T ] t.k.Y.Q.`.S.G k * OXOXOXOXOXOXOXOXOX",
"OXOXOXOXOXOXOXOXOX+ < M 0.L.R.Q.E.A.#.~  .0.y.u.u.u.u.u.u.u.u.u.u.u.u.u.u.u.u.u.;.*.( T P ' q.k.Y.Q.Q.Z.G h # OXOXOXOXOXOXOXOXOX",
"OXOXOXOXOXOXOXOXOX+ < M 0.L.R.Q.Q.V.[ N { =.t.u.u.u.u.i.u.u.u.u.t.b.u.u.u.u.u.t.9.&./ P p N ,.b.Y.E.Q.Z.F f & OXOXOXOXOXOXOXOXOX",
"OXOXOXOXOXOXOXOXOXo , b <.j.I.R.R.z.S u B | 0.t.y.y.t.y.y.y.y.t.t.t.t.t.y.y.t.t.=. .R 8 4 n X.h.L.T.T.m.A f % OXOXOXOXOXOXOXOXOX",
"OXOXOXOXOXOXOXOXOXo , 6 [ 4.x.v.v.7.t r b B | X.,.,.,.,.,.,.,.,.;.;.,.,.,.,.,.>.| E w 4 : 6 | e.h.c.d.1.m 2 # OXOXOXOXOXOXOXOXOX",
"OXOXOXOXOXOXOXOXOX. + < n [ 3.r.r.+.t r 5 b B | ] @.:.&.@.%.@. .*.$.@.&.@.&.:.| E Z 7 : ; 3 ! >.e.4.2.S 1 * X OXOXOXOXOXOXOXOXOX",
"OXOXOXOXOXOXOXOXOX  . # , u ! o.o.W t ; ; r u s Q ` ' ` ` ` ' ' ( ` ` ` ` ` ` Q Z u < ; , 4 V ` o.! n r @ X X OXOXOXOXOXOXOXOXOX",
"OXOXOXOXOXOXOXOXOX  o @ t n ~ @.@.+.C m j m C [ +.@.@.@.@.@.@.@.%.&.@.@.@.@.@.+.} C m j m C { @.@.~ C j * X . OXOXOXOXOXOXOXOXOX",
"OXOXOXOXOXOXOXOXOXo @ 6 D 5.a.n.k.j.s.6.6.6.s.d.c.v.v.v.k.v.v.c.v.c.c.k.j.C.n.j.d.s.6.6.6.s.j.j.v.c.z.2.l 2 X OXOXOXOXOXOXOXOXOX",
"OXOXOXOXOXOXOXOXOX# , b <.w.k.A.T.T.T.D.D.T.D.T.R.R.R.R.R.Y.R.R.R.R.R.R.R.T.T.Y.T.T.T.D.T.T.R.T.C.A.A.l.A 1 % OXOXOXOXOXOXOXOXOX",
"OXOXOXOXOXOXOXOXOX+ < n ..i.r.c.T.R.E.W.E.E.E.E.E.E.W.E.E.E.E.E.E.E.E.E.E.E.E.E.E.E.E.E.E.W.E.T.j.x.A.z.F f % OXOXOXOXOXOXOXOXOX",
"OXOXOXOXOXOXOXOXOX+ < n X.q.>.e.I.R.R.E.E.E.E.E.R.E.E.E.E.E.E.E.E.E.E.E.Q.W.E.E.E.E.R.E.E.E.R.C.r.e.v.z.S f % OXOXOXOXOXOXOXOXOX",
"OXOXOXOXOXOXOXOXOX+ , 9 | -.@.,.k.I.Y.Y.Y.Y.Y.Y.Y.Y.Y.Y.Y.Y.T.Y.Y.Y.Y.Y.Y.Y.Y.Y.Y.Y.Y.Y.Y.Y.I.k.e.,.j.p.A 1 $ OXOXOXOXOXOXOXOXOX",
"OXOXOXOXOXOXOXOXOXo - 9 ) =.&.>.g.n.n.n.n.n.n.n.P.L.n.n.n.n.n.n.b.C.L.L.n.n.n.n.n.n.n.n.n.n.n.h.,.:.f.5.M 1 # OXOXOXOXOXOXOXOXOX",
"OXOXOXOXOXOXOXOXOX+ = 7 R  .=.0.w.w.w.w.w.w.i.w.w.w.w.w.w.w.w.w.w.w.w.w.w.w.w.w.w.w.w.w.w.w.i.r.0.0.q.<.n < # OXOXOXOXOXOXOXOXOX",
"OXOXOXOXOXOXOXOXOXOX@ > w W } } { { { { { { { } { { { { { { { { { { { { { { { { { { { { { { { } { { { B t < OXOXOXOXOXOXOXOXOXOX",
"OXOXOXOXOXOXOXOXOXOXOX@ : < < 5 5 5 5 5 5 5 5 1 5 5 5 1 5 5 5 1 1 5 5 1 3 1 5 5 5 5 5 5 5 5 5 1 5 5 5 < , OXOXOXOXOXOXOXOXOXOXOX",
"OXOXOXOXOXOXOXOXOXOXOXOXo o o o o o o o o # o o o o o o o o o o + o o o o o o o o o o o o # o o # o o o OXOXOXOXOXOXOXOXOXOXOXOX",
"OXOXOXOXOXOXOXOXOXOXOXOXOX.   . .   . . X .   X . . . . . . . .   . . . . . X . .   . . X .   X . . . OXOXOXOXOXOXOXOXOXOXOXOXOX",
"OXOXOXOXOXOXOXOXOXOXOXOXOXOXOXOXOXOXOXOXOXOXOXOXOXOXOXOXOXOXOXOXOXOXOXOXOXOXOXOXOXOXOXOXOXOXOXOXOXOXOXOXOXOXOXOXOXOXOXOXOXOXOXOX",
"OXOXOXOXOXOXOXOXOXOXOXOXOXOXOXOXOXOXOXOXOXOXOXOXOXOXOXOXOXOXOXOXOXOXOXOXOXOXOXOXOXOXOXOXOXOXOXOXOXOXOXOXOXOXOXOXOXOXOXOXOXOXOXOX",
"OXOXOXOXOXOXOXOXOXOXOXOXOXOXOXOXOXOXOXOXOXOXOXOXOXOXOXOXOXOXOXOXOXOXOXOXOXOXOXOXOXOXOXOXOXOXOXOXOXOXOXOXOXOXOXOXOXOXOXOXOXOXOXOX",
"OXOXOXOXOXOXOXOXOXOXOXOXOXOXOXOXOXOXOXOXOXOXOXOXOXOXOXOXOXOXOXOXOXOXOXOXOXOXOXOXOXOXOXOXOXOXOXOXOXOXOXOXOXOXOXOXOXOXOXOXOXOXOXOX",
"OXOXOXOXOXOXOXOXOXOXOXOXOXOXOXOXOXOXOXOXOXOXOXOXOXOXOXOXOXOXOXOXOXOXOXOXOXOXOXOXOXOXOXOXOXOXOXOXOXOXOXOXOXOXOXOXOXOXOXOXOXOXOXOX"
};
